<?xml version="1.0" encoding="UTF-8" standalone="no"?>
<!-- Created with Inkscape (http://www.inkscape.org/) -->

<svg
   xmlns:dc="http://purl.org/dc/elements/1.1/"
   xmlns:cc="http://creativecommons.org/ns#"
   xmlns:rdf="http://www.w3.org/1999/02/22-rdf-syntax-ns#"
   xmlns:svg="http://www.w3.org/2000/svg"
   xmlns="http://www.w3.org/2000/svg"
   xmlns:sodipodi="http://sodipodi.sourceforge.net/DTD/sodipodi-0.dtd"
   xmlns:inkscape="http://www.inkscape.org/namespaces/inkscape"
   width="744.09448819"
   height="1052.3622047"
   id="svg2"
   version="1.1"
   inkscape:version="0.48.4 r9939"
   sodipodi:docname="Nuovo documento 1">
  <defs
     id="defs4" />
  <sodipodi:namedview
     id="base"
     pagecolor="#ffffff"
     bordercolor="#666666"
     borderopacity="1.0"
     inkscape:pageopacity="0.0"
     inkscape:pageshadow="2"
     inkscape:zoom="0.35"
     inkscape:cx="375"
     inkscape:cy="520"
     inkscape:document-units="px"
     inkscape:current-layer="layer1"
     showgrid="false"
     inkscape:window-width="518"
     inkscape:window-height="423"
     inkscape:window-x="75"
     inkscape:window-y="79"
     inkscape:window-maximized="0" />
  <metadata
     id="metadata7">
    <rdf:RDF>
      <cc:Work
         rdf:about="">
        <dc:format>image/svg+xml</dc:format>
        <dc:type
           rdf:resource="http://purl.org/dc/dcmitype/StillImage" />
        <dc:title></dc:title>
      </cc:Work>
    </rdf:RDF>
  </metadata>
  <g
     inkscape:label="Livello 1"
     inkscape:groupmode="layer"
     id="layer1">
    <g
       id="g824"
       transform="matrix(1.25,0,0,-1.25,424.26875,276.81397)">
      <path
         d="m -82.285714,-38.857143 0,-66.019997 57.17,33.009997 -57.17,33.01 z"
         style="fill:#333333;fill-opacity:1;fill-rule:nonzero;stroke:none"
         id="path826"
         inkscape:connector-curvature="0" />
    </g>
    <g
       id="g2998"
       transform="translate(398.73819,531.14255)">
      <path
         id="path3000"
         d="m 75.649605,0 0,21.862206 L 37.807086,0 l 0,21.862206 L 0,0 0,48.153545 37.807086,26.29134 l 0,21.862205 37.842519,-21.862205 0,21.862205 6.874016,0 0,-48.153545 -6.874016,0 z"
         style="fill:#333333;fill-opacity:1;fill-rule:nonzero;stroke:none"
         inkscape:connector-curvature="0" />
    </g>
    <g
       id="g758"
       transform="matrix(1.25,0,0,-1.25,246.49544,630.83789)">
      <path
         d="M 0,0 30.377,17.539 30.377,0 63.893,19.351 30.377,38.704 30.377,21.165 0,38.704 0,0 z"
         style="fill:#333333;fill-opacity:1;fill-rule:nonzero;stroke:none"
         id="path760"
         inkscape:connector-curvature="0" />
    </g>
    <path
       inkscape:connector-curvature="0"
       d="m 531.32929,315.31861 27.5075,0 0,-68.77 -27.5075,0 0,68.77 z"
       style="fill:#333333;fill-opacity:1;fill-rule:nonzero;stroke:none"
       id="path820" />
    <path
       inkscape:connector-curvature="0"
       d="m 572.59179,315.31861 27.5075,0 0,-68.77 -27.5075,0 0,68.77 z"
       style="fill:#333333;fill-opacity:1;fill-rule:nonzero;stroke:none"
       id="path822" />
    <g
       id="g880"
       transform="matrix(1.25,0,0,-1.25,541.86666,271.36698)">
      <path
         inkscape:connector-curvature="0"
         d="M 0,0 -0.363,-1.307 0.814,0.03 0.912,0.446 0.405,0.646 0,0 z"
         style="fill:#333333;fill-opacity:1;fill-rule:nonzero;stroke:none"
         id="path882" />
    </g>
    <g
       id="g3034"
       transform="translate(118.73819,371.14255)">
      <path
         id="path3036"
         d="M 82.523618,0 44.716533,21.862206 44.716533,0 6.8740154,21.862206 6.8740154,0 0,0 l 0,48.153545 6.8740154,0 0,-21.862205 37.8425176,21.862205 0,-21.862205 37.807085,21.862205 0,-48.153545 z"
         style="fill:#333333;fill-opacity:1;fill-rule:nonzero;stroke:none"
         inkscape:connector-curvature="0" />
    </g>
    <g
       id="g762"
       transform="matrix(1.25,0,0,-1.25,588.50455,365.31566)">
      <path
         d="m 0,0 -30.377,-17.539 0,17.539 -33.516,-19.353 33.516,-19.35 0,17.539 L 0,-38.703 0,0 z"
         style="fill:#333333;fill-opacity:1;fill-rule:nonzero;stroke:none"
         id="path764"
         inkscape:connector-curvature="0" />
    </g>
    <path
       d="m 628.67009,763.88941 -68.76875,0 0,-68.76875 68.76875,0 0,68.76875 z"
       style="fill:#333333;fill-opacity:1;fill-rule:nonzero;stroke:none"
       id="path818-1-7"
       inkscape:connector-curvature="0" />
    <path
       d="m 321.95661,758.46765 0,40.71375 c 0,1.23 16.19875,1.23 16.19875,0 l 0,-40.71375 c 0,-1.22875 -16.19875,-1.22875 -16.19875,0 m 82.46875,10.13125 0,-17.5625 c 0,-27.13 -19.87375,-46.82125 -47.25125,-46.82125 -27.38125,0 -47.2525,19.69125 -47.2525,46.82125 l 0,17.47125 c -1.145,2.8125 -1.44,6.495 -1.44,10.54125 0,8.81 1.34625,15.95125 9.99125,15.95125 l 0,-31.9 c -0.4725,0 -0.9175,0.0288 -1.34875,0.0712 l 0,-12.135 c 0,-23.32625 16.46875,-39.6175 40.05,-39.6175 23.57625,0 40.04375,16.29125 40.04375,39.6175 l 0,12.0925 c -0.44625,-0.0463 -0.91125,-0.075 -1.4025,-0.075 l 0,31.89875 c 8.64375,0 9.98875,-7.14 9.98875,-15.94625 0,-3.9825 -0.2825,-7.61375 -1.37875,-10.4075 m -28.2925,-9.72625 0,40.715 c 0,1.22875 16.19875,1.22875 16.19875,0 l 0,-40.715 c 0,-1.22875 -16.19875,-1.22875 -16.19875,0"
       style="fill:#333333;fill-opacity:1;fill-rule:nonzero;stroke:none"
       id="path80"
       inkscape:connector-curvature="0" />
    <g
       id="g3071"
       transform="translate(559.17773,524.22973)">
      <path
         id="path3073"
         d="m 3.6496062,21.153544 c 5.8464566,0.03543 11.4448818,1.346457 17.0433068,4.074803 4.889764,2.409449 9.779527,5.952756 14.492126,10.452756 0.460629,-0.46063 0.885826,-0.956693 1.311023,-1.452756 1.877953,-2.125984 3.862205,-4.216535 5.917323,-6.23622 -4.712598,-4.14567 -9.531496,-7.405512 -14.669291,-9.92126 -7.440945,-3.68504 -15.661417,-5.633859 -23.8818894,-5.633859 -0.7795275,0 -1.559055,0.03543 -2.3385826,0.07087 L 0,12.578741 0,21.330709 1.7007874,21.22441 c 0.6377952,-0.03543 1.2755905,-0.07087 1.9488188,-0.07087"
         style="fill:#333333;fill-opacity:1;fill-rule:nonzero;stroke:none"
         inkscape:connector-curvature="0" />
      <path
         id="path3075"
         d="m 70.86614,26.397639 c 1.559055,-0.744095 3.082677,-1.38189 4.606299,-1.913386 l 0,13.216536 23.31496,-18.814962 -23.31496,-18.85039393 0,14.98818893 c -4.03937,0.956693 -7.937007,2.338583 -11.65748,4.216536 -8.291338,4.074803 -15.874015,10.133859 -23.244094,18.531497 -6.377952,7.334646 -13.074803,12.755906 -19.877952,16.122047 -5.598425,2.728347 -11.1968502,4.039371 -17.0433068,4.074804 -0.6732283,0 -1.3110236,-0.03543 -1.9488188,-0.07087 L 0,57.79134 l 0,8.751969 1.523622,0.07087 c 0.7795276,0.03543 1.5590551,0.07087 2.3385826,0.07087 l 0.070866,0 c 8.1141734,0 16.3700784,-1.948819 23.8110234,-5.633858 C 36.035432,56.97638 43.618109,50.917324 50.988188,42.484253 57.36614,35.149607 64.062991,29.728347 70.86614,26.397639"
         style="fill:#333333;fill-opacity:1;fill-rule:nonzero;stroke:none"
         inkscape:connector-curvature="0" />
      <path
         id="path3077"
         d="m 75.472439,54.637797 c -1.559055,-0.531496 -3.082677,-1.169291 -4.606299,-1.913386 -4.464567,-2.232284 -8.964567,-5.350394 -13.358267,-9.389764 -0.814961,0.885827 -1.629922,1.771654 -2.444882,2.728346 -1.488189,1.665355 -3.047244,3.366142 -4.677165,4.960631 4.358267,3.649606 8.751968,6.555118 13.429133,8.858268 3.720473,1.842519 7.653543,3.259842 11.65748,4.216535 l 0,14.98819 23.31496,-18.850395 -23.31496,-18.850394 0,13.251969 z"
         style="fill:#333333;fill-opacity:1;fill-rule:nonzero;stroke:none"
         inkscape:connector-curvature="0" />
    </g>
    <g
       id="g3218"
       transform="translate(74.898481,512.80116)">
      <path
         id="path3220"
         d="m 84.437006,37.877954 c 0.106299,0.602362 0.141732,1.27559 0.141732,1.913386 0,9.141732 -7.440945,16.547244 -16.547244,16.547244 l -44.716534,0 0,-14.952756 L 0,60.236222 l 23.31496,18.850395 0,-13.960631 44.716534,0 c 13.96063,0 25.299212,-11.374016 25.299212,-25.334646 0,-2.799213 -0.46063,-5.598426 -1.38189,-8.255906 l -7.51181,6.34252 z"
         style="fill:#333333;fill-opacity:1;fill-rule:nonzero;stroke:none"
         inkscape:connector-curvature="0" />
      <path
         id="path3222"
         d="m 11.480315,41.244096 c -0.1063,-0.637796 -0.141733,-1.275591 -0.141733,-1.948819 0,-9.1063 7.440945,-16.547245 16.547244,-16.547245 l 44.716534,0 0,14.952757 23.31496,-18.814962 -23.31496,-18.85039393 0,13.96062993 -44.716534,0 c -13.96063,0 -25.2992119,11.338583 -25.2992119,25.299214 0,2.834646 0.4606299,5.598425 1.3818897,8.291339 l 7.5118112,-6.34252 z"
         style="fill:#333333;fill-opacity:1;fill-rule:nonzero;stroke:none"
         inkscape:connector-curvature="0" />
    </g>
  </g>
</svg>
