<?xml version="1.0" encoding="UTF-8" standalone="no"?>
<!-- Created with Inkscape (http://www.inkscape.org/) -->

<svg
   xmlns:dc="http://purl.org/dc/elements/1.1/"
   xmlns:cc="http://creativecommons.org/ns#"
   xmlns:rdf="http://www.w3.org/1999/02/22-rdf-syntax-ns#"
   xmlns:svg="http://www.w3.org/2000/svg"
   xmlns="http://www.w3.org/2000/svg"
   xmlns:sodipodi="http://sodipodi.sourceforge.net/DTD/sodipodi-0.dtd"
   xmlns:inkscape="http://www.inkscape.org/namespaces/inkscape"
   width="744.09448819"
   height="1052.3622047"
   id="svg2"
   version="1.1"
   inkscape:version="0.48.4 r9939"
   sodipodi:docname="Nuovo documento 1">
  <defs
     id="defs4" />
  <sodipodi:namedview
     id="base"
     pagecolor="#ffffff"
     bordercolor="#666666"
     borderopacity="1.0"
     inkscape:pageopacity="0.0"
     inkscape:pageshadow="2"
     inkscape:zoom="2.8284271"
     inkscape:cx="166.18042"
     inkscape:cy="714.53811"
     inkscape:document-units="px"
     inkscape:current-layer="layer1"
     showgrid="false"
     inkscape:window-width="1280"
     inkscape:window-height="974"
     inkscape:window-x="-8"
     inkscape:window-y="-8"
     inkscape:window-maximized="1" />
  <metadata
     id="metadata7">
    <rdf:RDF>
      <cc:Work
         rdf:about="">
        <dc:format>image/svg+xml</dc:format>
        <dc:type
           rdf:resource="http://purl.org/dc/dcmitype/StillImage" />
        <dc:title></dc:title>
      </cc:Work>
    </rdf:RDF>
  </metadata>
  <g
     inkscape:label="Livello 1"
     inkscape:groupmode="layer"
     id="layer1">
    <rect
       style="fill:#ffdd55;fill-opacity:0;fill-rule:nonzero;stroke:#3981c3;stroke-width:1.37699997000000000;stroke-linecap:butt;stroke-linejoin:miter;stroke-miterlimit:12.50000000000000000;stroke-opacity:0;stroke-dasharray:none;stroke-dashoffset:0"
       id="rect2987"
       width="95.714287"
       height="95.714287"
       x="148.57143"
       y="313.79074"
       ry="0.96677631" />
    <path
       style="fill:none;stroke:#000000;stroke-width:1px;stroke-linecap:butt;stroke-linejoin:miter;stroke-opacity:1"
       d="m 158.21429,324.50504 0,75.71429 75.35714,0 0,-76.07143 z"
       id="path2991"
       inkscape:connector-curvature="0" />
    <path
       style="fill:none;stroke:#000000;stroke-width:1px;stroke-linecap:butt;stroke-linejoin:miter;stroke-opacity:1"
       d="m 180.35714,324.50504 0,16.78571 53.21429,0"
       id="path2993"
       inkscape:connector-curvature="0" />
    <path
       style="fill:none;stroke:#000000;stroke-width:1px;stroke-linecap:butt;stroke-linejoin:miter;stroke-opacity:1"
       d="m 180.35714,337.71932 52.85715,0"
       id="path2997"
       inkscape:connector-curvature="0" />
    <path
       style="fill:none;stroke:#000000;stroke-width:1px;stroke-linecap:butt;stroke-linejoin:miter;stroke-opacity:1"
       d="m 180,333.79075 53.57143,0"
       id="path2999"
       inkscape:connector-curvature="0" />
    <path
       style="fill:none;stroke:#000000;stroke-width:1px;stroke-linecap:butt;stroke-linejoin:miter;stroke-opacity:1"
       d="m 180.35714,330.21932 52.85715,0"
       id="path3001"
       inkscape:connector-curvature="0" />
    <path
       style="fill:none;stroke:#000000;stroke-width:1px;stroke-linecap:butt;stroke-linejoin:miter;stroke-opacity:1"
       d="m 180.35714,327.00504 53.21429,0"
       id="path3003"
       inkscape:connector-curvature="0" />
    <path
       style="fill:#00aad4;fill-opacity:1;fill-rule:nonzero;stroke:#3981c3;stroke-width:0.49178570999999999;stroke-linecap:butt;stroke-linejoin:miter;stroke-miterlimit:12.50000000000000000;stroke-opacity:0;stroke-dasharray:none;stroke-dashoffset:0"
       d="m 158.85978,362.3754 0,-37.14285 10.35715,0 10.35714,0 0,8.39285 0,8.39286 26.60714,0 26.60714,0 0,28.75 0,28.75 -36.96428,0 -36.96429,0 0,-37.14286 z"
       id="path3011"
       inkscape:connector-curvature="0" />
    <path
       style="fill:#ffffff;fill-opacity:1;fill-rule:nonzero;stroke:#3981c3;stroke-width:0.1738725;stroke-linecap:butt;stroke-linejoin:miter;stroke-miterlimit:12.5;stroke-opacity:0;stroke-dasharray:none;stroke-dashoffset:0"
       d="m 180.90283,339.49212 0,-1.19955 26.07456,0 26.07456,0 0,1.19955 0,1.19956 -26.07456,0 -26.07456,0 0,-1.19956 z"
       id="path3013"
       inkscape:connector-curvature="0" />
    <path
       style="fill:#ffffff;fill-opacity:1;fill-rule:nonzero;stroke:#3981c3;stroke-width:0.1738725;stroke-linecap:butt;stroke-linejoin:miter;stroke-miterlimit:12.5;stroke-opacity:0;stroke-dasharray:none;stroke-dashoffset:0"
       d="m 180.90283,335.76718 0,-1.38895 26.07456,0 26.07456,0 0,1.38895 0,1.38896 -26.07456,0 -26.07456,0 0,-1.38896 z"
       id="path3015"
       inkscape:connector-curvature="0" />
    <path
       style="fill:#ffffff;fill-opacity:1;fill-rule:nonzero;stroke:#3981c3;stroke-width:0.1738725;stroke-linecap:butt;stroke-linejoin:miter;stroke-miterlimit:12.5;stroke-opacity:0;stroke-dasharray:none;stroke-dashoffset:0"
       d="m 180.90283,332.04225 0,-1.19956 26.07456,0 26.07456,0 0,1.19956 0,1.19955 -26.07456,0 -26.07456,0 0,-1.19955 z"
       id="path3017"
       inkscape:connector-curvature="0" />
    <path
       style="fill:#ffffff;fill-opacity:1;fill-rule:nonzero;stroke:#3981c3;stroke-width:0.1738725;stroke-linecap:butt;stroke-linejoin:miter;stroke-miterlimit:12.5;stroke-opacity:0;stroke-dasharray:none;stroke-dashoffset:0"
       d="m 180.90283,328.63298 0,-1.07328 26.07456,0 26.07456,0 0,1.07328 0,1.07329 -26.07456,0 -26.07456,0 0,-1.07329 z"
       id="path3019"
       inkscape:connector-curvature="0" />
    <path
       style="fill:#ffffff;fill-opacity:1;fill-rule:nonzero;stroke:#3981c3;stroke-width:0.1738725;stroke-linecap:butt;stroke-linejoin:miter;stroke-miterlimit:12.5;stroke-opacity:0;stroke-dasharray:none;stroke-dashoffset:0"
       d="m 180.90283,325.68124 0,-0.74204 24.33836,-0.0776 c 13.3861,-0.0427 25.11965,-0.10543 26.07456,-0.13949 l 1.7362,-0.0619 0,0.88152 0,0.88152 -26.07456,0 -26.07456,0 0,-0.74203 z"
       id="path3021"
       inkscape:connector-curvature="0" />
    <rect
       style="fill:#ffffff;fill-opacity:1;fill-rule:nonzero;stroke:#3981c3;stroke-width:1.37699997;stroke-linecap:butt;stroke-linejoin:miter;stroke-miterlimit:12.5;stroke-opacity:0;stroke-dasharray:none;stroke-dashoffset:0"
       id="rect3025"
       width="22.223356"
       height="22.223356"
       x="164.65486"
       y="353.33661"
       ry="0.96677631" />
    <path
       style="fill:none;stroke:#000000;stroke-width:1px;stroke-linecap:butt;stroke-linejoin:miter;stroke-opacity:1"
       d="m 164.82143,353.61218 0,21.875 21.875,0 0,-21.875 z"
       id="path3027"
       inkscape:connector-curvature="0" />
    <path
       style="fill:#00aad4;fill-opacity:1;fill-rule:nonzero;stroke:#3981c3;stroke-width:0.12294643;stroke-linecap:butt;stroke-linejoin:miter;stroke-miterlimit:12.5;stroke-opacity:0;stroke-dasharray:none;stroke-dashoffset:0"
       d="m 165.33027,364.55083 0,-10.35714 10.40179,0 10.40178,0 0,10.35714 0,10.35715 -10.40178,0 -10.40179,0 0,-10.35715 z"
       id="path3031"
       inkscape:connector-curvature="0" />
    <path
       sodipodi:type="arc"
       style="fill:#ffffff;fill-opacity:1;fill-rule:nonzero;stroke:#3981c3;stroke-width:1.37699997;stroke-linecap:butt;stroke-linejoin:miter;stroke-miterlimit:12.5;stroke-opacity:0;stroke-dasharray:none;stroke-dashoffset:0"
       id="path3033"
       sodipodi:cx="175.75893"
       sodipodi:cy="363.07648"
       sodipodi:rx="4.4196429"
       sodipodi:ry="4.4642859"
       d="m 180.17857,363.07648 a 4.4196429,4.4642859 0 1 1 -8.83929,0 4.4196429,4.4642859 0 1 1 8.83929,0 z"
       transform="translate(-0.06961128,0.04239944)" />
    <path
       sodipodi:type="arc"
       style="fill:#ffffff;fill-opacity:1;fill-rule:nonzero;stroke:#3981c3;stroke-width:1.37699997;stroke-linecap:butt;stroke-linejoin:miter;stroke-miterlimit:12.5;stroke-opacity:0;stroke-dasharray:none;stroke-dashoffset:0"
       id="path3067"
       sodipodi:cx="175.75893"
       sodipodi:cy="375.44254"
       sodipodi:rx="7.2767859"
       sodipodi:ry="6.7410712"
       d="m 183.03571,375.44254 a 7.2767859,6.7410712 0 1 1 -14.55357,0 7.2767859,6.7410712 0 1 1 14.55357,0 z"
       transform="translate(0.04509154,-2.53881)" />
    <path
       style="fill:none;stroke:#000000;stroke-width:1px;stroke-linecap:butt;stroke-linejoin:miter;stroke-opacity:1"
       d="m 165,375.3979 21.69643,0"
       id="path3069"
       inkscape:connector-curvature="0" />
    <path
       style="fill:#00aad4;fill-opacity:1;fill-rule:nonzero;stroke:#3981c3;stroke-width:0.12294643000000000;stroke-linecap:butt;stroke-linejoin:miter;stroke-miterlimit:12.50000000000000000;stroke-opacity:0;stroke-dasharray:none;stroke-dashoffset:0"
       d="m 174.46994,380.0502 c -1.5883,-0.30354 -3.19661,-1.19203 -4.18926,-2.3143 -0.42701,-0.48277 -1.1657,-1.64239 -1.09272,-1.71538 0.0232,-0.0232 3.04255,-0.032 6.70957,-0.0194 l 6.6673,0.0229 -0.33603,0.57658 c -0.6336,1.08718 -1.83426,2.19716 -3.03179,2.80282 -1.27141,0.64302 -3.29668,0.92012 -4.72707,0.64675 z"
       id="path3071"
       inkscape:connector-curvature="0" />
    <path
       style="fill:#00aad4;fill-opacity:1;fill-rule:nonzero;stroke:#3981c3;stroke-width:0.01086703;stroke-linecap:butt;stroke-linejoin:miter;stroke-miterlimit:12.5;stroke-opacity:0;stroke-dasharray:none;stroke-dashoffset:0"
       d="m 175.61124,380.2099 c -1.15782,-0.028 -2.32692,-0.33223 -3.35203,-0.87232 -1.31304,-0.69179 -2.36353,-1.74563 -3.00152,-3.0111 -0.0755,-0.14968 -0.17467,-0.36411 -0.18823,-0.40685 l -0.006,-0.0175 5.77735,0 5.77734,0 0,0.0564 0,0.0564 -1.2331,-0.005 c -3.56214,-0.0156 -6.82125,-0.0203 -8.39492,-0.0119 -0.90499,0.005 -1.68096,0.011 -1.72436,0.0138 l -0.0789,0.005 9.6e-4,0.0395 c 7.1e-4,0.029 0.0105,0.06 0.037,0.11648 0.1605,0.34321 0.67112,1.11258 0.99431,1.49817 0.1887,0.22514 0.52796,0.55219 0.81048,0.7813 0.84117,0.68214 1.91084,1.21912 2.98311,1.49752 0.3855,0.10009 0.70857,0.15494 1.10485,0.1876 0.2037,0.0168 0.72276,0.023 0.95369,0.0114 0.8869,-0.0444 1.74682,-0.20755 2.49109,-0.47254 0.57321,-0.2041 1.1285,-0.50989 1.69279,-0.93223 0.10379,-0.0777 0.16745,-0.12771 0.34036,-0.26749 l 0.0227,-0.0183 -4.4e-4,0.0538 -4.3e-4,0.0538 -0.0883,0.068 c -0.8395,0.6465 -1.75754,1.09137 -2.78073,1.34751 -0.70476,0.17643 -1.36722,0.24731 -2.13741,0.22869 l 0,0 z"
       id="path3073"
       inkscape:connector-curvature="0" />
    <path
       style="fill:#00aad4;fill-opacity:1;fill-rule:nonzero;stroke:#3981c3;stroke-width:0.02173406;stroke-linecap:butt;stroke-linejoin:miter;stroke-miterlimit:12.5;stroke-opacity:0;stroke-dasharray:none;stroke-dashoffset:0"
       d="m 181.71197,376.01734 c -0.47311,-0.005 -0.9117,-0.0106 -0.97464,-0.0118 l -0.11443,-0.002 0,-0.0473 0,-0.0474 1.00146,0 1.00145,0 -0.0245,0.0592 c -0.0135,0.0326 -0.0256,0.0592 -0.0268,0.0592 -0.001,0 -0.38938,-0.004 -0.8625,-0.01 z"
       id="path3075"
       inkscape:connector-curvature="0" />
    <path
       style="fill:#00aad4;fill-opacity:1;fill-rule:nonzero;stroke:#3981c3;stroke-width:0.00768415;stroke-linecap:butt;stroke-linejoin:miter;stroke-miterlimit:12.5;stroke-opacity:0;stroke-dasharray:none;stroke-dashoffset:0"
       d="m 180.61915,378.50831 1e-4,-0.0551 0.0515,-0.0425 c 0.0283,-0.0234 0.10299,-0.0889 0.16591,-0.14564 0.48215,-0.43479 0.88349,-0.88861 1.20066,-1.35765 0.0991,-0.14656 0.16579,-0.25589 0.35906,-0.58872 0.14307,-0.24638 0.17766,-0.30131 0.18506,-0.29392 0.005,0.005 -0.0984,0.22197 -0.17969,0.37788 -0.21828,0.41876 -0.47501,0.80462 -0.78323,1.1772 -0.27794,0.33597 -0.6397,0.6937 -0.97299,0.96214 l -0.0265,0.0213 1e-4,-0.0551 0,0 z"
       id="path3077"
       inkscape:connector-curvature="0" />
    <path
       style="fill:#00aad4;fill-opacity:1;fill-rule:nonzero;stroke:#3981c3;stroke-width:0.00537891;stroke-linecap:butt;stroke-linejoin:miter;stroke-miterlimit:12.5;stroke-opacity:0;stroke-dasharray:none;stroke-dashoffset:0"
       d=""
       id="path3079"
       inkscape:connector-curvature="0" />
    <path
       style="fill:#00aad4;fill-opacity:1;fill-rule:nonzero;stroke:#3981c3;stroke-width:0.00537891;stroke-linecap:butt;stroke-linejoin:miter;stroke-miterlimit:12.5;stroke-opacity:0;stroke-dasharray:none;stroke-dashoffset:0"
       d="m 175.48766,380.20349 c -1.27916,-0.0544 -2.54807,-0.43744 -3.62695,-1.0948 -0.28835,-0.17569 -0.56393,-0.37097 -0.82715,-0.58613 l -0.0693,-0.0567 0,-0.0329 0,-0.0329 0.0225,0.0193 c 0.0416,0.0358 0.1898,0.15156 0.27637,0.21593 1.07054,0.79585 2.4381,1.3518 3.65039,1.48398 0.17884,0.0195 0.28815,0.0271 0.41563,0.029 0.0561,8.3e-4 0.0888,9.2e-4 0.0727,2e-4 -0.60494,-0.0269 -1.04975,-0.10083 -1.625,-0.2699 -0.97867,-0.28765 -1.93041,-0.78194 -2.71972,-1.41251 l -0.0928,-0.0741 0,-0.64011 0,-0.64011 3.72462,0 3.72461,0 -9.8e-4,1.30551 -9.8e-4,1.30551 -0.0527,0.017 c -0.77914,0.25102 -1.67365,0.39618 -2.5332,0.41108 l -0.17187,0.003 0.21289,-10e-4 c 0.23758,-0.001 0.37069,-0.008 0.63476,-0.0334 0.66588,-0.0632 1.27287,-0.18532 1.87029,-0.3762 l 0.0422,-0.0135 -0.001,0.0256 -0.001,0.0256 -0.0371,0.0131 c -0.12641,0.0446 -0.38071,0.12107 -0.54883,0.16504 -0.56293,0.14725 -1.09306,0.22527 -1.67578,0.24663 -0.14125,0.005 -0.51914,0.004 -0.66211,-0.002 l 0,0 z m 0.0984,-0.0516 c -0.0243,-6.9e-4 -0.063,-6.9e-4 -0.0859,0 -0.023,6.9e-4 -0.003,0.001 0.0442,0.001 0.0473,0 0.0661,-5.7e-4 0.0418,-0.001 l 0,1e-5 z"
       id="path3081"
       inkscape:connector-curvature="0" />
    <path
       style="fill:#00aad4;fill-opacity:1;fill-rule:nonzero;stroke:#3981c3;stroke-width:0.00537891;stroke-linecap:butt;stroke-linejoin:miter;stroke-miterlimit:12.5;stroke-opacity:0;stroke-dasharray:none;stroke-dashoffset:0"
       d=""
       id="path3083"
       inkscape:connector-curvature="0" />
    <path
       style="fill:#00aad4;fill-opacity:1;fill-rule:nonzero;stroke:#3981c3;stroke-width:0.00537891;stroke-linecap:butt;stroke-linejoin:miter;stroke-miterlimit:12.5;stroke-opacity:0;stroke-dasharray:none;stroke-dashoffset:0"
       d=""
       id="path3085"
       inkscape:connector-curvature="0" />
    <path
       style="fill:#00aad4;fill-opacity:1;fill-rule:nonzero;stroke:#3981c3;stroke-width:0.00537891;stroke-linecap:butt;stroke-linejoin:miter;stroke-miterlimit:12.5;stroke-opacity:0;stroke-dasharray:none;stroke-dashoffset:0"
       d="m 175.48766,380.2035 c -1.46343,-0.0621 -2.90584,-0.55391 -4.07227,-1.38861 -0.13695,-0.098 -0.34629,-0.25942 -0.43261,-0.33358 l -0.0186,-0.0159 -1e-5,-0.0325 0,-0.0325 0.0264,0.0221 c 0.0524,0.0439 0.21954,0.17379 0.2998,0.233 1.03086,0.76036 2.35054,1.30398 3.5254,1.45221 0.20353,0.0257 0.44699,0.0444 0.55468,0.0428 0.0161,-2.5e-4 -0.0103,-0.003 -0.0586,-0.006 -0.37658,-0.0219 -0.62587,-0.0527 -0.93359,-0.11545 -0.77536,-0.15806 -1.58302,-0.46548 -2.31055,-0.87946 -0.36609,-0.20831 -0.6895,-0.42708 -1.01074,-0.68372 l -0.0928,-0.0741 0,-0.64011 0,-0.64011 3.72462,0 3.72461,0 -9.8e-4,1.3055 -9.8e-4,1.30551 -0.0586,0.019 c -0.76687,0.24835 -1.68552,0.39623 -2.55078,0.41062 -0.0387,6.4e-4 0.008,6e-4 0.10352,-10e-5 0.4467,-0.003 1.05658,-0.0714 1.56445,-0.17492 0.32364,-0.066 0.56909,-0.12998 0.91521,-0.23871 l 0.0285,-0.009 -10e-4,0.0255 -0.001,0.0255 -0.0312,0.0112 c -0.0595,0.0214 -0.26219,0.0851 -0.36328,0.11422 -0.62691,0.18065 -1.21923,0.27562 -1.86719,0.29937 -0.1411,0.005 -0.519,0.004 -0.66211,-0.002 l 0,0 z m 0.0693,-0.0515 c -0.008,-8.4e-4 -0.0212,-8.4e-4 -0.0293,0 -0.008,8.4e-4 -0.001,0.002 0.0146,0.002 0.0161,0 0.0227,-6.9e-4 0.0146,-0.002 z"
       id="path3087"
       inkscape:connector-curvature="0" />
    <path
       style="fill:#00aad4;fill-opacity:1;fill-rule:nonzero;stroke:#3981c3;stroke-width:0.00537891;stroke-linecap:butt;stroke-linejoin:miter;stroke-miterlimit:12.5;stroke-opacity:0;stroke-dasharray:none;stroke-dashoffset:0"
       d="m 175.48766,380.20353 c -1.30958,-0.0556 -2.6061,-0.45522 -3.70191,-1.14094 -0.26371,-0.16502 -0.50022,-0.33469 -0.75219,-0.53963 l -0.0693,-0.0564 0,-0.0326 0,-0.0326 0.0908,0.0727 c 0.71882,0.57511 1.58157,1.03894 2.48926,1.33827 0.54383,0.17934 1.0407,0.28313 1.55469,0.32474 0.10406,0.008 0.27927,0.0163 0.27506,0.0124 -8.9e-4,-8.3e-4 -0.0385,-0.004 -0.0837,-0.006 -0.35371,-0.0196 -0.65064,-0.0576 -0.95114,-0.12176 -1.06073,-0.22636 -2.11101,-0.69579 -3.00393,-1.34262 -0.10558,-0.0765 -0.27156,-0.20461 -0.3545,-0.27367 l -0.0166,-0.0138 0,-0.6398 0,-0.63979 3.72462,0 3.72461,0 -9.8e-4,1.3055 -9.8e-4,1.30551 -0.0586,0.019 c -0.2581,0.0838 -0.56666,0.16418 -0.8555,0.22299 -0.49986,0.10178 -0.96748,0.15899 -1.48629,0.18185 l -0.0684,0.003 0.0586,5.9e-4 c 0.0836,8.4e-4 0.29219,-0.0118 0.47461,-0.0288 0.47864,-0.0446 0.91519,-0.11724 1.34961,-0.22457 0.20144,-0.0498 0.29249,-0.0756 0.5656,-0.16026 l 0.0226,-0.007 -0.001,0.0255 -0.001,0.0255 -0.0312,0.0115 c -0.0536,0.0196 -0.25702,0.0836 -0.36328,0.11413 -0.6291,0.18103 -1.21886,0.27558 -1.86719,0.29934 -0.14142,0.005 -0.5193,0.004 -0.66211,-0.002 l 0,0 z m 0.0593,-0.0514 c -0.003,-10e-4 -0.006,-9.9e-4 -0.007,3e-4 -0.001,0.001 0.001,0.002 0.005,0.002 0.005,-1.9e-4 0.005,-10e-4 0.002,-0.002 l 0,0 z m 0.36566,-2.4e-4 c -0.0166,-7.3e-4 -0.0447,-7.3e-4 -0.0625,0 -0.0178,7.2e-4 -0.004,0.001 0.0301,0.001 0.0344,10e-6 0.049,-5.8e-4 0.0324,-0.001 l 0,-10e-6 z"
       id="path3089"
       inkscape:connector-curvature="0" />
    <path
       style="fill:#00aad4;fill-opacity:1;fill-rule:nonzero;stroke:#3981c3;stroke-width:0.00537891;stroke-linecap:butt;stroke-linejoin:miter;stroke-miterlimit:12.5;stroke-opacity:0;stroke-dasharray:none;stroke-dashoffset:0"
       d="m 175.51696,380.2051 c -1.30536,-0.0489 -2.6193,-0.44964 -3.7168,-1.13355 -0.28683,-0.17874 -0.57342,-0.38557 -0.81738,-0.58991 l -0.0186,-0.0155 0,-0.0329 0,-0.0329 0.04,0.0327 c 0.34151,0.27928 0.73173,0.54135 1.15409,0.7751 0.11693,0.0647 0.39955,0.20746 0.52072,0.26301 0.52092,0.23878 1.0442,0.41808 1.56054,0.5347 0.26366,0.0595 0.52254,0.10035 0.79493,0.12529 0.11078,0.0102 0.33233,0.0226 0.3281,0.0185 -0.001,-10e-4 -0.0353,-0.004 -0.0762,-0.006 -0.44268,-0.0263 -0.76001,-0.0728 -1.16128,-0.17031 -0.3467,-0.0842 -0.70655,-0.20024 -1.05747,-0.34089 -0.73285,-0.29373 -1.41839,-0.69147 -2.0166,-1.17002 l -0.0869,-0.0695 0,-0.64037 0,-0.64036 3.72461,0 3.72461,0 0,1.30445 c 0,0.76129 -0.001,1.30536 -0.003,1.30662 -0.007,0.004 -0.18138,0.0585 -0.27776,0.0862 -0.66486,0.19125 -1.35578,0.30161 -2.11328,0.33756 l -0.0644,0.003 0.0488,5.8e-4 c 0.0524,6.2e-4 0.20812,-0.007 0.33203,-0.0171 0.52299,-0.041 1.01943,-0.11992 1.49802,-0.23809 0.17823,-0.044 0.30991,-0.0815 0.56368,-0.16056 l 0.0168,-0.005 -0.001,0.0257 -0.001,0.0257 -0.0195,0.008 c -0.0367,0.0141 -0.23808,0.0781 -0.33789,0.10737 -0.58395,0.17096 -1.14352,0.26876 -1.72852,0.30211 -0.20726,0.0118 -0.59638,0.0154 -0.80859,0.007 z m 0.36236,-0.053 c -0.005,-9.2e-4 -0.0136,-9.5e-4 -0.0195,-5e-5 -0.006,9e-4 -0.002,0.002 0.009,0.002 0.0107,3e-5 0.0156,-7.1e-4 0.0108,-0.002 l 0,0 z"
       id="path3091"
       inkscape:connector-curvature="0" />
    <path
       style="fill:#00aad4;fill-opacity:1;fill-rule:nonzero;stroke:#3981c3;stroke-width:0.00537891;stroke-linecap:butt;stroke-linejoin:miter;stroke-miterlimit:12.5;stroke-opacity:0;stroke-dasharray:none;stroke-dashoffset:0"
       d=""
       id="path3093"
       inkscape:connector-curvature="0" />
    <path
       style="fill:#00aad4;fill-opacity:1;fill-rule:nonzero;stroke:#3981c3;stroke-width:0.00537891;stroke-linecap:butt;stroke-linejoin:miter;stroke-miterlimit:12.5;stroke-opacity:0;stroke-dasharray:none;stroke-dashoffset:0"
       d=""
       id="path3095"
       inkscape:connector-curvature="0" />
    <path
       style="fill:#00aad4;fill-opacity:1;fill-rule:nonzero;stroke:#3981c3;stroke-width:0.00537891;stroke-linecap:butt;stroke-linejoin:miter;stroke-miterlimit:12.5;stroke-opacity:0;stroke-dasharray:none;stroke-dashoffset:0"
       d="m 180.62067,378.50664 5e-5,-0.0522 0.0263,-0.0215 c 0.12045,-0.0982 0.35445,-0.31456 0.52822,-0.48847 0.30305,-0.3033 0.57238,-0.62083 0.79438,-0.93656 0.14086,-0.20033 0.1851,-0.27143 0.43803,-0.70391 0.10828,-0.18513 0.16461,-0.2762 0.16847,-0.27234 0.005,0.005 -0.13819,0.29987 -0.22021,0.45185 -0.3534,0.6548 -0.81523,1.24628 -1.3819,1.76982 -0.10572,0.0977 -0.27091,0.24073 -0.34659,0.30017 -0.006,0.005 -0.007,0.002 -0.007,-0.0469 l 0,0 z"
       id="path3097"
       inkscape:connector-curvature="0" />
    <path
       style="fill:#00aad4;fill-opacity:1;fill-rule:nonzero;stroke:#3981c3;stroke-width:0.00537891;stroke-linecap:butt;stroke-linejoin:miter;stroke-miterlimit:12.5;stroke-opacity:0;stroke-dasharray:none;stroke-dashoffset:0"
       d="m 180.70948,376.0161 c 0.005,-9.3e-4 0.0127,-9.3e-4 0.0176,0 0.005,9.3e-4 8.8e-4,0.002 -0.009,0.002 -0.01,0 -0.0136,-7.7e-4 -0.009,-0.002 z"
       id="path3099"
       inkscape:connector-curvature="0" />
    <path
       style="fill:#00aad4;fill-opacity:1;fill-rule:nonzero;stroke:#3981c3;stroke-width:0.00537891;stroke-linecap:butt;stroke-linejoin:miter;stroke-miterlimit:12.5;stroke-opacity:0;stroke-dasharray:none;stroke-dashoffset:0"
       d="m 182.58271,376.01788 c 0.001,-0.005 0.0119,-0.0312 0.0239,-0.0586 0.012,-0.0274 0.0218,-0.0507 0.0218,-0.0518 0,-0.001 -0.4522,-0.002 -1.00488,-0.003 l -1.00489,-9.9e-4 1.00879,-9.7e-4 c 0.55484,-5.3e-4 1.00879,5e-5 1.00879,0.001 0,10e-4 -0.0116,0.0294 -0.0258,0.0625 -0.0243,0.0566 -0.0325,0.0719 -0.0277,0.0514 z"
       id="path3101"
       inkscape:connector-curvature="0" />
    <path
       style="fill:none;stroke:#000000;stroke-width:1px;stroke-linecap:butt;stroke-linejoin:miter;stroke-opacity:1"
       d="M 164.84375,375.48718 186.75,375.45598 z"
       id="path3105"
       inkscape:connector-curvature="0" />
    <path
       style="fill:none;stroke:#000000;stroke-width:1px;stroke-linecap:butt;stroke-linejoin:miter;stroke-opacity:1"
       d="m 173.00295,380.12348 52.85715,0"
       id="path2997-7"
       inkscape:connector-curvature="0" />
    <path
       style="fill:none;stroke:#000000;stroke-width:0.85201281px;stroke-linecap:butt;stroke-linejoin:miter;stroke-opacity:1"
       d="m 190.99808,355.76725 38.37037,0"
       id="path2997-48"
       inkscape:connector-curvature="0" />
    <path
       style="fill:none;stroke:#000000;stroke-width:0.85201281px;stroke-linecap:butt;stroke-linejoin:miter;stroke-opacity:1"
       d="m 190.82553,359.75109 38.37037,0"
       id="path2997-48-8"
       inkscape:connector-curvature="0" />
    <path
       style="fill:none;stroke:#000000;stroke-width:0.85201281px;stroke-linecap:butt;stroke-linejoin:miter;stroke-opacity:1"
       d="m 190.82553,363.72856 38.37037,0"
       id="path2997-48-2"
       inkscape:connector-curvature="0" />
    <path
       style="fill:none;stroke:#000000;stroke-width:0.85201281px;stroke-linecap:butt;stroke-linejoin:miter;stroke-opacity:1"
       d="m 190.82553,368.14799 38.37037,0"
       id="path2997-48-4"
       inkscape:connector-curvature="0" />
    <path
       style="fill:none;stroke:#000000;stroke-width:0.85201281px;stroke-linecap:butt;stroke-linejoin:miter;stroke-opacity:1"
       d="m 190.64876,372.21385 38.37037,0"
       id="path2997-48-5"
       inkscape:connector-curvature="0" />
  </g>
</svg>
