<?xml version="1.0" encoding="UTF-8" standalone="no"?>
<!-- Created with Inkscape (http://www.inkscape.org/) -->

<svg
   xmlns:dc="http://purl.org/dc/elements/1.1/"
   xmlns:cc="http://creativecommons.org/ns#"
   xmlns:rdf="http://www.w3.org/1999/02/22-rdf-syntax-ns#"
   xmlns:svg="http://www.w3.org/2000/svg"
   xmlns="http://www.w3.org/2000/svg"
   xmlns:sodipodi="http://sodipodi.sourceforge.net/DTD/sodipodi-0.dtd"
   xmlns:inkscape="http://www.inkscape.org/namespaces/inkscape"
   width="96"
   height="96"
   id="svg2"
   version="1.1"
   inkscape:version="0.48.0 r9654"
   sodipodi:docname="Gmail.svg"
   inkscape:export-filename="C:\Users\user\Documents\GitHub\now-launcher\Icons\LDPI\Gmail.png"
   inkscape:export-xdpi="33.75"
   inkscape:export-ydpi="33.75">
  <defs
     id="defs4" />
  <sodipodi:namedview
     id="base"
     pagecolor="#ffffff"
     bordercolor="#666666"
     borderopacity="1.0"
     inkscape:pageopacity="0.0"
     inkscape:pageshadow="2"
     inkscape:zoom="2.8284271"
     inkscape:cx="133.06851"
     inkscape:cy="45.692898"
     inkscape:document-units="px"
     inkscape:current-layer="layer1"
     showgrid="false"
     inkscape:window-width="1366"
     inkscape:window-height="706"
     inkscape:window-x="-8"
     inkscape:window-y="-8"
     inkscape:window-maximized="1"
     showguides="true"
     inkscape:guide-bbox="true"
     inkscape:snap-grids="true"
     inkscape:snap-to-guides="true">
    <sodipodi:guide
       orientation="1,0"
       position="8,822.68688"
       id="guide3065" />
    <sodipodi:guide
       orientation="1,0"
       position="88,509.41207"
       id="guide3067" />
    <sodipodi:guide
       orientation="0,1"
       position="-999.75525,8"
       id="guide3069" />
    <sodipodi:guide
       orientation="0,1"
       position="-841.75578,88"
       id="guide3071" />
  </sodipodi:namedview>
  <metadata
     id="metadata7">
    <rdf:RDF>
      <cc:Work
         rdf:about="">
        <dc:format>image/svg+xml</dc:format>
        <dc:type
           rdf:resource="http://purl.org/dc/dcmitype/StillImage" />
        <dc:title></dc:title>
      </cc:Work>
    </rdf:RDF>
  </metadata>
  <g
     inkscape:label="Livello 1"
     inkscape:groupmode="layer"
     id="layer1"
     transform="translate(0,-956.36218)">
    <rect
       style="fill:#03abd5;fill-opacity:1;fill-rule:nonzero;stroke:none"
       id="rect3153"
       width="80"
       height="80"
       x="8"
       y="8"
       transform="translate(0,956.36218)"
       ry="0" />
    <g
       id="g3113"
       transform="matrix(0.87064067,0,0,0.87064067,6.6572221,129.42713)">
      <path
         inkscape:connector-curvature="0"
         id="path3793"
         d="m 16.098203,1043.7482 0,-50.52221 63.895741,-0.33021 0,50.85242 z"
         style="fill:none;stroke:#000000;stroke-width:0.92458963px;stroke-linecap:butt;stroke-linejoin:miter;stroke-opacity:1" />
      <path
         sodipodi:nodetypes="ccc"
         inkscape:connector-curvature="0"
         id="path3795"
         d="m 16.098203,993.22599 32.195532,29.38871 31.369999,-29.71892"
         style="fill:none;stroke:#000000;stroke-width:0.92458963px;stroke-linecap:butt;stroke-linejoin:miter;stroke-opacity:1" />
      <path
         sodipodi:nodetypes="cc"
         inkscape:connector-curvature="0"
         id="path3797"
         d="m 15.932588,1043.5836 25.262123,-27.4085"
         style="fill:none;stroke:#000000;stroke-width:0.92356408px;stroke-linecap:butt;stroke-linejoin:miter;stroke-opacity:1" />
      <path
         sodipodi:nodetypes="cc"
         inkscape:connector-curvature="0"
         id="path3799"
         d="m 55.067283,1015.8496 24.592218,27.5642"
         style="fill:none;stroke:#000000;stroke-width:0.93305701px;stroke-linecap:butt;stroke-linejoin:miter;stroke-opacity:1" />
      <path
         sodipodi:nodetypes="ccc"
         inkscape:connector-curvature="0"
         id="path3801"
         d="m 16.099377,992.89461 30.702021,-27.90045 33.191389,27.90045"
         style="fill:none;stroke:#000000;stroke-width:0.92693222px;stroke-linecap:butt;stroke-linejoin:miter;stroke-opacity:1" />
      <path
         inkscape:connector-curvature="0"
         id="path3807"
         d="m 24.518568,996.19787 46.229486,0 z"
         style="fill:none;stroke:#000000;stroke-width:0.92458963px;stroke-linecap:butt;stroke-linejoin:miter;stroke-opacity:1" />
      <path
         inkscape:connector-curvature="0"
         id="path3807-1"
         d="m 24.518568,999.16978 46.229486,0 z"
         style="fill:none;stroke:#000000;stroke-width:0.92458963px;stroke-linecap:butt;stroke-linejoin:miter;stroke-opacity:1" />
      <path
         inkscape:connector-curvature="0"
         id="path3807-7"
         d="m 25.658227,1001.8115 44.610588,0 z"
         style="fill:none;stroke:#000000;stroke-width:0.90825635px;stroke-linecap:butt;stroke-linejoin:miter;stroke-opacity:1" />
      <path
         inkscape:connector-curvature="0"
         id="path3807-4"
         d="m 28.243343,1004.288 39.110154,0 z"
         style="fill:none;stroke:#000000;stroke-width:0.85042155px;stroke-linecap:butt;stroke-linejoin:miter;stroke-opacity:1" />
      <path
         inkscape:connector-curvature="0"
         id="path3847"
         d="m 16.650367,1018.257 0,-23.7565 0.454041,0.41815 c 0.943637,0.86912 23.241057,21.16755 23.293423,21.20515 0.03006,0.022 -5.236731,5.7851 -11.704204,12.8077 -6.467482,7.0226 -11.822999,12.8389 -11.901159,12.9252 -0.07947,0.088 -0.142101,-10.3136 -0.142101,-23.5997 z"
         style="fill:#ffffff;fill-opacity:1;fill-rule:nonzero;stroke:#3981c3;stroke-width:0.22735001;stroke-linecap:butt;stroke-linejoin:miter;stroke-miterlimit:12.5;stroke-opacity:0;stroke-dasharray:none;stroke-dashoffset:0" />
      <path
         inkscape:connector-curvature="0"
         id="path3849"
         d="m 25.615122,1033.8986 c 4.751669,-5.1533 10.178911,-11.0414 12.060536,-13.0846 1.881608,-2.0432 3.474402,-3.7334 3.539526,-3.7561 0.06513,-0.023 1.670167,1.3733 3.566746,3.102 1.896587,1.7288 3.503011,3.1219 3.569846,3.0957 0.06686,-0.026 1.633973,-1.4777 3.482539,-3.2256 l 3.361023,-3.1781 0.352601,0.3713 c 0.193931,0.2042 5.313578,5.9436 11.376991,12.7542 6.063414,6.8105 11.213934,12.5872 11.445598,12.8369 l 0.421207,0.454 -30.90802,0 -30.908002,0 8.639409,-9.3697 0,0 z"
         style="fill:#ffffff;fill-opacity:1;fill-rule:nonzero;stroke:#3981c3;stroke-width:0.22735001;stroke-linecap:butt;stroke-linejoin:miter;stroke-miterlimit:12.5;stroke-opacity:0;stroke-dasharray:none;stroke-dashoffset:0" />
      <path
         inkscape:connector-curvature="0"
         id="path3851"
         d="m 67.770393,1029.2473 c -6.345586,-7.1098 -11.546399,-13.0202 -11.557369,-13.1342 -0.01097,-0.114 5.180866,-5.1376 11.537423,-11.1636 l 11.557369,-10.95647 0.04233,12.10257 c 0.02332,6.6564 0.02332,17.4972 0,24.0906 l -0.04233,11.9881 -11.537423,-12.927 z"
         style="fill:#ffffff;fill-opacity:1;fill-rule:nonzero;stroke:#3981c3;stroke-width:0.22735001;stroke-linecap:butt;stroke-linejoin:miter;stroke-miterlimit:12.5;stroke-opacity:0;stroke-dasharray:none;stroke-dashoffset:0" />
      <path
         inkscape:connector-curvature="0"
         id="path3853"
         d="m 38.951052,1013.3419 -9.267668,-8.4605 9.073244,-0.043 c 4.990296,-0.024 13.207893,-0.024 18.261344,0 l 9.188091,0.043 -8.790908,8.3378 c -4.834995,4.5858 -8.882146,8.393 -8.993667,8.4605 -0.131044,0.079 -3.481044,-2.87 -9.470436,-8.3378 l 0,0 z"
         style="fill:#ffffff;fill-opacity:1;fill-rule:nonzero;stroke:#3981c3;stroke-width:0.22735001;stroke-linecap:butt;stroke-linejoin:miter;stroke-miterlimit:12.5;stroke-opacity:0;stroke-dasharray:none;stroke-dashoffset:0" />
      <path
         inkscape:connector-curvature="0"
         id="path3855"
         d="m 38.155321,1003.8495 c 5.334966,-0.024 14.064922,-0.024 19.39988,0 5.334966,0.024 0.969984,0.044 -9.699932,0.044 -10.669933,0 -15.034906,-0.02 -9.699948,-0.044 z"
         style="fill:#ffffff;fill-opacity:1;fill-rule:nonzero;stroke:#3981c3;stroke-width:0.22735001;stroke-linecap:butt;stroke-linejoin:miter;stroke-miterlimit:12.5;stroke-opacity:0;stroke-dasharray:none;stroke-dashoffset:0" />
      <path
         inkscape:connector-curvature="0"
         id="path3857"
         d="m 27.712421,1003.0652 -0.729173,-0.743 20.954569,0 20.95457,0 -0.729182,0.743 -0.729155,0.743 -19.496233,0 -19.496223,0 -0.729173,-0.743 z"
         style="fill:#ffffff;fill-opacity:1;fill-rule:nonzero;stroke:#3981c3;stroke-width:0.22735001;stroke-linecap:butt;stroke-linejoin:miter;stroke-miterlimit:12.5;stroke-opacity:0;stroke-dasharray:none;stroke-dashoffset:0" />
      <path
         inkscape:connector-curvature="0"
         id="path3859"
         d="m 21.686049,997.57543 -4.111265,-3.75614 2.633508,-0.0384 c 4.390613,-0.0638 57.938217,-0.35247 57.978273,-0.31242 0.02056,0.0206 -1.824595,1.7981 -4.100224,3.95018 l -4.137526,3.91295 -22.075759,0 -22.075769,0 -4.111238,-3.75622 z m 49.118845,1.60978 0,-0.49531 -23.197287,0 -23.197295,0 0,0.49531 0,0.49532 23.197295,0 23.197287,0 0,-0.49532 z m 0,-2.97189 0,-0.49531 -23.197287,0 -23.197295,0 0,0.49531 0,0.49531 23.197295,0 23.197287,0 0,-0.49531 z"
         style="fill:#ffffff;fill-opacity:1;fill-rule:nonzero;stroke:#3981c3;stroke-width:0.22735001;stroke-linecap:butt;stroke-linejoin:miter;stroke-miterlimit:12.5;stroke-opacity:0;stroke-dasharray:none;stroke-dashoffset:0" />
      <path
         inkscape:connector-curvature="0"
         id="path3861"
         d="m 17.3579,992.48038 c 11.991586,-10.95285 29.404115,-26.65312 29.517848,-26.61521 0.08526,0.0284 7.22644,5.99538 15.869321,13.25991 l 15.714348,13.20827 -18.728014,0.11191 c -37.627007,0.22485 -42.585721,0.22895 -42.373503,0.0352 z"
         style="fill:#ffdd55;fill-opacity:1;fill-rule:nonzero;stroke:#3981c3;stroke-width:0.22735001;stroke-linecap:butt;stroke-linejoin:miter;stroke-miterlimit:12.5;stroke-opacity:0;stroke-dasharray:none;stroke-dashoffset:0" />
      <path
         inkscape:connector-curvature="0"
         id="path3863"
         d="m 46.843147,1020.2837 c -1.55126,-1.3366 -4.319233,-3.8337 -11.753668,-10.6037 l -5.088393,-4.6335 8.914419,-0.043 c 4.902936,-0.023 12.977292,-0.023 17.94302,0 l 9.02861,0.043 -4.269157,4.0516 c -9.136935,8.6713 -13.101788,12.3763 -13.244381,12.3763 -0.08172,0 -0.770387,-0.5358 -1.53045,-1.1907 z"
         style="fill:#ffdd55;fill-opacity:1;fill-rule:nonzero;stroke:#3981c3;stroke-width:0.22735001;stroke-linecap:butt;stroke-linejoin:miter;stroke-miterlimit:12.5;stroke-opacity:0;stroke-dasharray:none;stroke-dashoffset:0" />
      <path
         inkscape:connector-curvature="0"
         id="path3865"
         d="m 27.877526,1003.0652 -0.729173,-0.743 20.789464,0 20.789465,0 -0.729165,0.743 -0.729181,0.743 -19.331119,0 -19.331118,0 -0.729173,-0.743 z"
         style="fill:#ffdd55;fill-opacity:1;fill-rule:nonzero;stroke:#3981c3;stroke-width:0.22735001;stroke-linecap:butt;stroke-linejoin:miter;stroke-miterlimit:12.5;stroke-opacity:0;stroke-dasharray:none;stroke-dashoffset:0" />
      <path
         inkscape:connector-curvature="0"
         id="path3867"
         d="m 21.917894,997.65799 -4.02134,-3.6736 6.682819,-0.10186 c 3.675546,-0.0561 17.190394,-0.15399 30.033005,-0.21771 l 23.350195,-0.11586 -2.464378,2.36338 c -1.355403,1.29987 -3.181535,3.05095 -4.058053,3.89132 l -1.593674,1.52794 -21.953613,0 -21.953622,0 -4.021339,-3.67361 z m 48.887,1.52722 0,-0.49531 -23.197287,0 -23.197295,0 0,0.49531 0,0.49532 23.197295,0 23.197287,0 0,-0.49532 z m 0,-2.97189 0,-0.49531 -23.197287,0 -23.197295,0 0,0.49531 0,0.49531 23.197295,0 23.197287,0 0,-0.49531 z"
         style="fill:#ffdd55;fill-opacity:1;fill-rule:nonzero;stroke:#3981c3;stroke-width:0.22735001;stroke-linecap:butt;stroke-linejoin:miter;stroke-miterlimit:12.5;stroke-opacity:0;stroke-dasharray:none;stroke-dashoffset:0" />
      <path
         inkscape:connector-curvature="0"
         id="path3812"
         d="m 24.288623,1043.5019 20.942553,-23.5604"
         style="fill:none;stroke:#000000;stroke-width:0.86383629px;stroke-linecap:butt;stroke-linejoin:miter;stroke-opacity:1" />
      <path
         inkscape:connector-curvature="0"
         id="path3814"
         d="m 51.339423,1019.9415 21.37886,23.7785"
         style="fill:none;stroke:#000000;stroke-width:0.86383629px;stroke-linecap:butt;stroke-linejoin:miter;stroke-opacity:1" />
      <path
         inkscape:connector-curvature="0"
         id="path3816"
         d="M 47.194538,1056.1547 z"
         style="fill:none;stroke:#000000;stroke-width:0.86383629px;stroke-linecap:butt;stroke-linejoin:miter;stroke-opacity:1" />
      <path
         inkscape:connector-curvature="0"
         id="path3818"
         d="m 16.435168,1000.9623 20.288093,19.1974"
         style="fill:none;stroke:#000000;stroke-width:0.86383629px;stroke-linecap:butt;stroke-linejoin:miter;stroke-opacity:1" />
      <path
         inkscape:connector-curvature="0"
         id="path3820"
         d="M 59.192879,1020.1597 79.699134,999.87157"
         style="fill:none;stroke:#000000;stroke-width:0.86383629px;stroke-linecap:butt;stroke-linejoin:miter;stroke-opacity:1" />
      <path
         inkscape:connector-curvature="0"
         id="path3822"
         d="m 24.07047,993.10887 22.68777,-20.50625 25.523737,20.06995"
         style="fill:none;stroke:#000000;stroke-width:0.86383629px;stroke-linecap:butt;stroke-linejoin:miter;stroke-opacity:1" />
      <path
         inkscape:connector-curvature="0"
         id="path3826"
         d="m 18.058351,1042.2968 c 1.834633,-1.9389 21.732341,-23.5384 22.290811,-24.1973 0.338693,-0.3995 0.71822,-0.7265 0.843407,-0.7265 0.125187,0 0.89902,0.5953 1.719622,1.3228 l 1.492009,1.3228 -10.268577,11.5481 -10.268578,11.5482 -3.291389,0 -3.29138,0 0.774075,-0.8181 0,0 z"
         style="fill:#ff2a2a;fill-opacity:0.98642536;fill-rule:nonzero;stroke:#3981c3;stroke-width:0.30039474;stroke-linecap:butt;stroke-linejoin:miter;stroke-miterlimit:12.5;stroke-opacity:0;stroke-dasharray:none;stroke-dashoffset:0" />
      <path
         inkscape:connector-curvature="0"
         id="path3828"
         d="m 26.80814,1010.0063 -10.089254,-9.54 -2.59e-4,-2.79965 -2.59e-4,-2.79963 0.525998,0.39996 c 0.289308,0.21997 5.582007,5.00872 11.761563,10.64162 l 11.235556,10.2416 -1.533948,1.6476 c -0.843675,0.9062 -1.596093,1.6704 -1.672051,1.6981 -0.07593,0.028 -4.67826,-4.2425 -10.227346,-9.4896 l 0,0 z"
         style="fill:#ff2a2a;fill-opacity:0.98642536;fill-rule:nonzero;stroke:#3981c3;stroke-width:0.30039474;stroke-linecap:butt;stroke-linejoin:miter;stroke-miterlimit:12.5;stroke-opacity:0;stroke-dasharray:none;stroke-dashoffset:0" />
      <path
         inkscape:connector-curvature="0"
         id="path3830"
         d="m 63.184658,1032.2979 c -5.33926,-5.9415 -9.992677,-11.1479 -10.340933,-11.57 l -0.633192,-0.7673 1.390422,-1.4028 c 0.764729,-0.7716 1.462821,-1.4029 1.551321,-1.4029 0.0885,0 4.209759,4.5403 9.158358,10.0895 4.948598,5.5492 10.162783,11.3902 11.587094,12.98 l 2.589634,2.8905 -2.797473,-0.01 -2.797482,-0.01 -9.707749,-10.8026 z"
         style="fill:#ff2a2a;fill-opacity:0.98642536;fill-rule:nonzero;stroke:#3981c3;stroke-width:0.30039474;stroke-linecap:butt;stroke-linejoin:miter;stroke-miterlimit:12.5;stroke-opacity:0;stroke-dasharray:none;stroke-dashoffset:0" />
      <path
         inkscape:connector-curvature="0"
         id="path3832"
         d="m 57.786717,1017.731 -1.356067,-1.5578 3.867844,-3.8309 c 2.127318,-2.1071 7.20557,-6.9948 11.285002,-10.8618 l 7.417157,-7.03074 0.115219,2.46288 0.115218,2.46287 -6.441618,6.50429 c -3.542886,3.5774 -8.062754,8.0579 -10.044153,9.9567 l -3.602534,3.4523 -1.356068,-1.5578 z"
         style="fill:#ff2a2a;fill-opacity:0.98642536;fill-rule:nonzero;stroke:#3981c3;stroke-width:0.30039474;stroke-linecap:butt;stroke-linejoin:miter;stroke-miterlimit:12.5;stroke-opacity:0;stroke-dasharray:none;stroke-dashoffset:0" />
      <path
         inkscape:connector-curvature="0"
         id="path3834"
         d="m 17.816917,992.2046 c 1.465991,-1.37283 20.531765,-18.58757 24.191977,-21.84325 2.562951,-2.27968 4.778786,-4.13358 4.924092,-4.11978 0.308139,0.0293 31.085987,25.72987 31.085987,25.95791 0,0.0473 -1.202564,0.0847 -2.672364,0.083 l -2.672356,-0.003 -12.761868,-10.05332 c -7.019024,-5.52932 -12.879341,-10.10125 -13.022919,-10.15985 -0.143579,-0.0586 -5.373114,4.51587 -11.62119,10.16547 l -11.360138,10.272 -3.205325,0 c -2.725283,0 -3.157495,-0.0448 -2.885896,-0.29914 z"
         style="fill:#ff2a2a;fill-opacity:0.98642536;fill-rule:nonzero;stroke:#3981c3;stroke-width:0.30039474;stroke-linecap:butt;stroke-linejoin:miter;stroke-miterlimit:12.5;stroke-opacity:0;stroke-dasharray:none;stroke-dashoffset:0" />
      <path
         inkscape:connector-curvature="0"
         id="path3844"
         d="m 41.958904,1023.4319 6.544545,5.2357 6.108247,-5.0175"
         style="fill:none;stroke:#000000;stroke-width:0.86383629px;stroke-linecap:butt;stroke-linejoin:miter;stroke-opacity:1" />
      <path
         inkscape:connector-curvature="0"
         id="path3848"
         d="m 45.652919,1025.6437 -2.753064,-2.2007 1.12183,-1.2898 c 0.617003,-0.7093 1.181451,-1.2897 1.254325,-1.2897 0.07291,0 0.751589,0.5399 1.508258,1.1998 0.75666,0.6599 1.465049,1.1998 1.574186,1.1998 0.109137,0 0.807134,-0.5721 1.551087,-1.2714 l 1.352647,-1.2714 1.282745,1.4155 c 1.030513,1.1371 1.226811,1.4661 0.998284,1.673 -0.705513,0.639 -4.9432,4.0355 -5.034836,4.0355 -0.05632,0 -1.341278,-0.9903 -2.855462,-2.2006 z"
         style="fill:#ff2d2d;fill-opacity:1;fill-rule:nonzero;stroke:#3981c3;stroke-width:0.30039473999999999;stroke-linecap:butt;stroke-linejoin:miter;stroke-miterlimit:12.50000000000000000;stroke-opacity:0;stroke-dasharray:none;stroke-dashoffset:0" />
      <path
         inkscape:connector-curvature="0"
         id="path3850"
         d="m 46.921376,1020.1565 c -0.713857,-0.6288 -4.725029,-4.2365 -8.913728,-8.0171 l -7.615805,-6.8738 8.74483,-0.057 c 4.809659,-0.031 12.703819,-0.031 17.542589,0 l 8.797749,0.057 -5.400272,5.1266 c -6.657984,6.3205 -11.578119,10.8895 -11.737376,10.8998 -0.066,0 -0.70413,-0.5067 -1.417987,-1.1355 l 0,0 z"
         style="fill:#ffffff;fill-opacity:0.98642536;fill-rule:nonzero;stroke:#3981c3;stroke-width:0.30039474;stroke-linecap:butt;stroke-linejoin:miter;stroke-miterlimit:12.5;stroke-opacity:0;stroke-dasharray:none;stroke-dashoffset:0" />
      <path
         inkscape:connector-curvature="0"
         id="path3852"
         d="m 27.953172,1002.975 -0.627007,-0.6544 20.58788,0 20.587879,0 -0.627007,0.6544 -0.627007,0.6545 -19.333865,0 -19.333866,0 -0.627007,-0.6545 z"
         style="fill:#ffffff;fill-opacity:0.98642536;fill-rule:nonzero;stroke:#3981c3;stroke-width:0.30039474;stroke-linecap:butt;stroke-linejoin:miter;stroke-miterlimit:12.5;stroke-opacity:0;stroke-dasharray:none;stroke-dashoffset:0" />
      <path
         inkscape:connector-curvature="0"
         id="path3854"
         d="m 22.106486,997.67925 -3.883333,-3.53937 10.209725,-0.13962 c 5.61535,-0.0768 18.995786,-0.19155 29.734299,-0.255 l 19.524566,-0.11537 -3.926732,3.79106 -3.926724,3.79105 -21.924242,0 -21.924234,0 -3.883325,-3.53935 z m 48.713482,1.47812 0,-0.54538 -23.233145,0 -23.233153,0 0,0.54538 0,0.54537 23.233153,0 23.233145,0 0,-0.54537 z m 0,-2.94505 0,-0.65445 -23.233145,0 -23.233153,0 0,0.65445 0,0.65446 23.233153,0 23.233145,0 0,-0.65446 z"
         style="fill:#ffffff;fill-opacity:0.98642536;fill-rule:nonzero;stroke:#3981c3;stroke-width:0.30039474;stroke-linecap:butt;stroke-linejoin:miter;stroke-miterlimit:12.5;stroke-opacity:0;stroke-dasharray:none;stroke-dashoffset:0" />
      <path
         inkscape:connector-curvature="0"
         id="path3856"
         d="m 25.995875,992.10064 c 2.4211,-2.26836 20.553732,-18.52488 20.718336,-18.57469 0.119986,-0.0363 5.57443,4.14522 12.120979,9.29228 l 11.902826,9.35829 -12.339124,0.13201 c -6.786522,0.0726 -16.950316,0.14623 -22.5862,0.16361 -9.974778,0.0308 -10.235631,0.0209 -9.816817,-0.3715 z"
         style="fill:#ffffff;fill-opacity:0.98642536;fill-rule:nonzero;stroke:#3981c3;stroke-width:0.30039474;stroke-linecap:butt;stroke-linejoin:miter;stroke-miterlimit:12.5;stroke-opacity:0;stroke-dasharray:none;stroke-dashoffset:0" />
    </g>
  </g>
</svg>
