<?xml version="1.0" encoding="UTF-8" standalone="no"?>
<!-- Created with Inkscape (http://www.inkscape.org/) -->

<svg
   xmlns:dc="http://purl.org/dc/elements/1.1/"
   xmlns:cc="http://creativecommons.org/ns#"
   xmlns:rdf="http://www.w3.org/1999/02/22-rdf-syntax-ns#"
   xmlns:svg="http://www.w3.org/2000/svg"
   xmlns="http://www.w3.org/2000/svg"
   xmlns:sodipodi="http://sodipodi.sourceforge.net/DTD/sodipodi-0.dtd"
   xmlns:inkscape="http://www.inkscape.org/namespaces/inkscape"
   width="96"
   height="96"
   id="svg2"
   version="1.1"
   inkscape:version="0.48.4 r9939"
   sodipodi:docname="Messages3.svg"
   inkscape:export-filename="C:\Users\Edoardo\Documents\GitHub\now-launcher\Icons\vectorials\Icons\Messages3.png"
   inkscape:export-xdpi="90"
   inkscape:export-ydpi="90">
  <defs
     id="defs4" />
  <sodipodi:namedview
     id="base"
     pagecolor="#ffffff"
     bordercolor="#666666"
     borderopacity="1.0"
     inkscape:pageopacity="0.0"
     inkscape:pageshadow="2"
     inkscape:zoom="5.6568542"
     inkscape:cx="54.374017"
     inkscape:cy="38.751394"
     inkscape:document-units="px"
     inkscape:current-layer="layer1"
     showgrid="false"
     inkscape:snap-bbox="false"
     showguides="true"
     inkscape:guide-bbox="true"
     inkscape:window-width="1280"
     inkscape:window-height="974"
     inkscape:window-x="-8"
     inkscape:window-y="-8"
     inkscape:window-maximized="1">
    <sodipodi:guide
       orientation="1,0"
       position="8,66.5"
       id="guide2993" />
    <sodipodi:guide
       orientation="1,0"
       position="88,54"
       id="guide2995" />
    <sodipodi:guide
       orientation="0,1"
       position="31.5,8"
       id="guide2997" />
    <sodipodi:guide
       orientation="0,1"
       position="55.5,88"
       id="guide2999" />
    <sodipodi:guide
       orientation="1,0"
       position="48,51.5"
       id="guide3003" />
    <sodipodi:guide
       orientation="1,0"
       position="19,88"
       id="guide3005" />
    <sodipodi:guide
       orientation="1,0"
       position="77.5,67.5"
       id="guide3007" />
    <sodipodi:guide
       orientation="0,1"
       position="48,76.5"
       id="guide3009" />
    <sodipodi:guide
       orientation="0,1"
       position="48,18.5"
       id="guide3011" />
    <sodipodi:guide
       orientation="0,1"
       position="88,47.199378"
       id="guide3021" />
  </sodipodi:namedview>
  <metadata
     id="metadata7">
    <rdf:RDF>
      <cc:Work
         rdf:about="">
        <dc:format>image/svg+xml</dc:format>
        <dc:type
           rdf:resource="http://purl.org/dc/dcmitype/StillImage" />
        <dc:title></dc:title>
      </cc:Work>
    </rdf:RDF>
  </metadata>
  <g
     inkscape:groupmode="layer"
     id="layer2"
     inkscape:label="Livello 2">
    <rect
       style="fill:#ffffff;fill-opacity:0.98642536000000003;fill-rule:nonzero;stroke:#3981c3;stroke-width:1.37699997000000000;stroke-linecap:butt;stroke-linejoin:miter;stroke-miterlimit:12.50000000000000000;stroke-opacity:0;stroke-dasharray:none;stroke-dashoffset:0"
       id="rect3030"
       width="80"
       height="80"
       x="8"
       y="8" />
  </g>
  <g
     inkscape:label="Livello 1"
     inkscape:groupmode="layer"
     id="layer1"
     transform="translate(0,-956.36218)">
    <rect
       style="fill:#f9f9f9;fill-opacity:0.98642536000000003;fill-rule:nonzero;stroke:#3981c3;stroke-width:1.37699997000000000;stroke-linecap:butt;stroke-linejoin:miter;stroke-miterlimit:12.50000000000000000;stroke-opacity:0;stroke-dasharray:none;stroke-dashoffset:0"
       id="rect3013"
       width="58.5"
       height="58"
       x="19"
       y="19.5"
       transform="translate(0,956.36218)" />
    <path
       style="fill:none;stroke:#000000;stroke-width:1px;stroke-linecap:butt;stroke-linejoin:miter;stroke-opacity:1"
       d="M 8,8 88,8 88,88 8,88 z"
       id="path2999"
       inkscape:connector-curvature="0"
       transform="translate(0,956.36218)" />
    <path
       style="fill:none;stroke:#000000;stroke-width:1.16851485px;stroke-linecap:butt;stroke-linejoin:miter;stroke-opacity:1"
       d="M 8.0842575,964.44644 48,1014.3897 87.915743,964.44644"
       id="path3001"
       inkscape:connector-curvature="0" />
    <path
       style="fill:none;stroke:#000000;stroke-width:1px;stroke-linecap:butt;stroke-linejoin:miter;stroke-opacity:1"
       d="M 8,88 40.65864,48.800622"
       id="path3007"
       inkscape:connector-curvature="0"
       transform="translate(0,956.36218)" />
    <path
       style="fill:none;stroke:#000000;stroke-width:1px;stroke-linecap:butt;stroke-linejoin:miter;stroke-opacity:1"
       d="M 55.154329,48.800622 88,88"
       id="path3009"
       inkscape:connector-curvature="0"
       transform="translate(0,956.36218)" />
    <path
       style="fill:#f2f2f2;fill-opacity:1;fill-rule:nonzero;stroke:#3981c3;stroke-width:0.24342151;stroke-linecap:butt;stroke-linejoin:miter;stroke-miterlimit:12.5;stroke-opacity:0;stroke-dasharray:none;stroke-dashoffset:0"
       d="m 19.089389,48.37189 c 0,-21.470584 0.03707,-25.31267 0.242111,-25.093452 0.215441,0.230339 17.174937,21.447627 19.523297,24.424748 l 0.934671,1.184925 -10.198162,12.250104 C 23.982316,67.875772 19.324798,73.46389 19.241266,73.556256 19.15654,73.649942 19.089389,62.51493 19.089389,48.37189 z"
       id="path3011"
       inkscape:connector-curvature="0"
       transform="translate(0,956.36218)" />
    <path
       style="fill:#f2f2f2;fill-opacity:1;fill-rule:nonzero;stroke:#3981c3;stroke-width:0.24342151;stroke-linecap:butt;stroke-linejoin:miter;stroke-miterlimit:12.5;stroke-opacity:0;stroke-dasharray:none;stroke-dashoffset:0"
       d="M 33.576682,38.881507 C 21.147709,23.336116 19.179209,20.795372 19.120369,20.222727 l -0.06812,-0.662913 29.171991,0 c 21.551537,0 29.189409,0.05225 29.238668,0.200029 0.05368,0.16104 -28.120308,35.6743 -29.194277,36.799334 -0.289647,0.303419 -0.972092,-0.517716 -14.691953,-17.67767 l 0,0 z"
       id="path3013"
       inkscape:connector-curvature="0"
       transform="translate(0,956.36218)" />
    <path
       style="fill:#f2f2f2;fill-opacity:1;fill-rule:nonzero;stroke:#3981c3;stroke-width:0.24342151;stroke-linecap:butt;stroke-linejoin:miter;stroke-miterlimit:12.5;stroke-opacity:0;stroke-dasharray:none;stroke-dashoffset:0"
       d="m 19.206696,66.121868 c -0.139959,-8.588887 -0.115705,-32.968654 0.03848,-38.683542 0.118718,-4.400189 0.06122,-4.226265 0.993259,-3.004488 0.194454,0.254903 0.512652,0.655436 0.707106,0.890072 0.194455,0.234636 0.512653,0.632384 0.707107,0.883883 0.194455,0.2515 0.512653,0.649248 0.707107,0.883884 0.194454,0.234636 0.512652,0.632384 0.707107,0.883883 0.194454,0.2515 0.512652,0.649248 0.707107,0.883884 0.194454,0.234636 0.491125,0.604805 0.659269,0.822598 0.168144,0.217792 3.656725,4.592797 7.752404,9.722233 4.653181,5.827654 7.409917,9.42207 7.348667,9.581682 -0.0848,0.220994 -19.094623,23.151563 -19.908813,24.01498 -0.284552,0.301754 -0.30809,-0.08487 -0.418803,-6.879069 z"
       id="path3015"
       inkscape:connector-curvature="0"
       transform="translate(0,956.36218)" />
    <path
       style="fill:#f2f2f2;fill-opacity:1;fill-rule:nonzero;stroke:#3981c3;stroke-width:0.24342151;stroke-linecap:butt;stroke-linejoin:miter;stroke-miterlimit:12.5;stroke-opacity:0;stroke-dasharray:none;stroke-dashoffset:0"
       d="m 8.6595641,48.091485 c 0,-21.283588 0.067161,-38.07408 0.1519204,-37.980385 0.083556,0.09237 2.3904925,2.970592 5.1265245,6.396059 l 4.974603,6.228121 0,25.600059 0,25.600059 -5.126524,6.152204 -5.1265239,6.152203 0,-38.14832 z"
       id="path3017"
       inkscape:connector-curvature="0"
       transform="translate(0,956.36218)" />
    <path
       style="fill:#f2f2f2;fill-opacity:1;fill-rule:nonzero;stroke:#3981c3;stroke-width:0.24342151;stroke-linecap:butt;stroke-linejoin:miter;stroke-miterlimit:12.5;stroke-opacity:0;stroke-dasharray:none;stroke-dashoffset:0"
       d="m 14.094446,14.514644 -4.7297777,-5.9149848 38.6277987,0 38.627798,0 -4.451697,5.5642248 c -3.204293,4.00508 -4.510131,5.515731 -4.660225,5.391163 -0.134657,-0.111755 -10.533944,-0.157219 -29.356201,-0.128341 l -29.147674,0.04472 -0.09012,0.479102 c -0.08125,0.431926 -0.555844,-0.103322 -4.8199,-5.435884 l 0,0 z"
       id="path3019"
       inkscape:connector-curvature="0"
       transform="translate(0,956.36218)" />
    <path
       style="fill:#f2f2f2;fill-opacity:1;fill-rule:nonzero;stroke:#3981c3;stroke-width:0.24342151;stroke-linecap:butt;stroke-linejoin:miter;stroke-miterlimit:12.5;stroke-opacity:0;stroke-dasharray:none;stroke-dashoffset:0"
       d=""
       id="path3021"
       inkscape:connector-curvature="0"
       transform="translate(0,956.36218)" />
    <path
       style="fill:#f2f2f2;fill-opacity:1;fill-rule:nonzero;stroke:#3981c3;stroke-width:0.24342151;stroke-linecap:butt;stroke-linejoin:miter;stroke-miterlimit:12.5;stroke-opacity:0;stroke-dasharray:none;stroke-dashoffset:0"
       d="m 9.4904693,87.204728 c 0.077752,-0.130536 2.2096537,-2.718012 4.7375607,-5.749947 l 4.596194,-5.512609 0.05388,0.800199 0.05388,0.800199 29.323504,0 29.323504,0 0.05594,-0.458441 c 0.04821,-0.39515 0.653876,0.255344 4.386965,4.711696 2.382066,2.843575 4.394644,5.277261 4.472395,5.408189 0.118327,0.199256 -6.156372,0.238051 -38.501909,0.238051 -32.288202,0 -38.6200278,-0.03903 -38.5019097,-0.237337 z"
       id="path3023"
       inkscape:connector-curvature="0"
       transform="translate(0,956.36218)" />
    <path
       style="fill:#f2f2f2;fill-opacity:1;fill-rule:nonzero;stroke:#3981c3;stroke-width:0.24342151;stroke-linecap:butt;stroke-linejoin:miter;stroke-miterlimit:12.5;stroke-opacity:0;stroke-dasharray:none;stroke-dashoffset:0"
       d="m 19.089389,76.499275 0,-0.866519 10.740731,-12.888253 10.740729,-12.888254 3.622378,4.553441 c 1.992307,2.504393 3.701925,4.553434 3.799152,4.553425 0.09723,-9e-6 1.755398,-1.984722 3.684823,-4.410474 1.929426,-2.425752 3.574963,-4.410458 3.656748,-4.410458 0.08179,0 5.085887,5.891424 11.120225,13.092054 9.054548,10.804573 10.971524,13.182867 10.971524,13.611805 l 0,0.519752 -29.168155,0 -29.168155,0 0,-0.866519 z"
       id="path3025"
       inkscape:connector-curvature="0"
       transform="translate(0,956.36218)" />
    <path
       style="fill:#f2f2f2;fill-opacity:1;fill-rule:nonzero;stroke:#3981c3;stroke-width:0.24342151;stroke-linecap:butt;stroke-linejoin:miter;stroke-miterlimit:12.5;stroke-opacity:0;stroke-dasharray:none;stroke-dashoffset:0"
       d="M 66.7221,61.658829 56.10689,48.993134 66.7221,35.724041 77.33731,22.454947 77.38264,35.414681 c 0.02493,7.127854 0.02493,18.798508 0,25.934789 L 77.33731,74.324524 66.7221,61.658829 z"
       id="path3027"
       inkscape:connector-curvature="0"
       transform="translate(0,956.36218)" />
    <path
       style="fill:#f2f2f2;fill-opacity:1;fill-rule:nonzero;stroke:#3981c3;stroke-width:0.24342151;stroke-linecap:butt;stroke-linejoin:miter;stroke-miterlimit:12.5;stroke-opacity:0;stroke-dasharray:none;stroke-dashoffset:0"
       d="m 82.508029,80.495652 -4.905554,-5.849037 0,-26.276895 0,-26.276893 4.905554,-6.143812 4.905553,-6.1438122 0.04498,19.0936962 c 0.02474,10.501533 0.02474,27.722917 0,38.269741 l -0.04498,19.176047 -4.905553,-5.849035 z"
       id="path3029"
       inkscape:connector-curvature="0"
       transform="translate(0,956.36218)" />
  </g>
</svg>
