<?xml version="1.0" encoding="UTF-8" standalone="no"?>
<!-- Created with Inkscape (http://www.inkscape.org/) -->

<svg
   xmlns:dc="http://purl.org/dc/elements/1.1/"
   xmlns:cc="http://creativecommons.org/ns#"
   xmlns:rdf="http://www.w3.org/1999/02/22-rdf-syntax-ns#"
   xmlns:svg="http://www.w3.org/2000/svg"
   xmlns="http://www.w3.org/2000/svg"
   xmlns:sodipodi="http://sodipodi.sourceforge.net/DTD/sodipodi-0.dtd"
   xmlns:inkscape="http://www.inkscape.org/namespaces/inkscape"
   width="744.09448819"
   height="1052.3622047"
   id="svg2"
   version="1.1"
   inkscape:version="0.48.4 r9939"
   sodipodi:docname="Nuovo documento 1">
  <defs
     id="defs4" />
  <sodipodi:namedview
     id="base"
     pagecolor="#ffffff"
     bordercolor="#666666"
     borderopacity="1.0"
     inkscape:pageopacity="0.0"
     inkscape:pageshadow="2"
     inkscape:zoom="3.959798"
     inkscape:cx="277.3296"
     inkscape:cy="678.53622"
     inkscape:document-units="px"
     inkscape:current-layer="layer1"
     showgrid="false"
     inkscape:window-width="1280"
     inkscape:window-height="974"
     inkscape:window-x="-8"
     inkscape:window-y="-8"
     inkscape:window-maximized="1" />
  <metadata
     id="metadata7">
    <rdf:RDF>
      <cc:Work
         rdf:about="">
        <dc:format>image/svg+xml</dc:format>
        <dc:type
           rdf:resource="http://purl.org/dc/dcmitype/StillImage" />
        <dc:title></dc:title>
      </cc:Work>
    </rdf:RDF>
  </metadata>
  <g
     inkscape:label="Livello 1"
     inkscape:groupmode="layer"
     id="layer1">
    <rect
       style="fill:#ff2a2a;fill-opacity:0.87782808;stroke:#3981c3;stroke-width:0.96017647;stroke-linecap:square;stroke-linejoin:bevel;stroke-miterlimit:4;stroke-opacity:0;stroke-dasharray:none"
       id="rect2989"
       width="93.18615"
       height="92.215454"
       x="250.28523"
       y="338.92242"
       ry="0.96677631" />
    <path
       style="fill:none;stroke:#000000;stroke-width:1px;stroke-linecap:butt;stroke-linejoin:miter;stroke-opacity:1"
       d="m 263.35696,428.15569 0,-54.64286 69.10714,-0.35714 0,55 z"
       id="path3793"
       inkscape:connector-curvature="0" />
    <path
       style="fill:none;stroke:#000000;stroke-width:1px;stroke-linecap:butt;stroke-linejoin:miter;stroke-opacity:1"
       d="m 263.35696,373.51283 34.82143,31.78571 33.92857,-32.14285"
       id="path3795"
       inkscape:connector-curvature="0"
       sodipodi:nodetypes="ccc" />
    <path
       style="fill:none;stroke:#000000;stroke-width:0.9988907px;stroke-linecap:butt;stroke-linejoin:miter;stroke-opacity:1"
       d="m 263.17784,427.97767 27.32252,-29.64396"
       id="path3797"
       inkscape:connector-curvature="0"
       sodipodi:nodetypes="cc" />
    <path
       style="fill:none;stroke:#000000;stroke-width:1.00915802px;stroke-linecap:butt;stroke-linejoin:miter;stroke-opacity:1"
       d="m 305.50439,397.9817 26.59799,29.81227"
       id="path3799"
       inkscape:connector-curvature="0"
       sodipodi:nodetypes="cc" />
    <path
       style="fill:none;stroke:#000000;stroke-width:1.00253356px;stroke-linecap:butt;stroke-linejoin:miter;stroke-opacity:1"
       d="m 263.35823,373.15442 33.2061,-30.17603 35.89851,30.17603"
       id="path3801"
       inkscape:connector-curvature="0"
       sodipodi:nodetypes="ccc" />
    <path
       style="fill:none;stroke:#000000;stroke-width:1px;stroke-linecap:butt;stroke-linejoin:miter;stroke-opacity:1"
       d="m 272.4641,376.72711 50,0 z"
       id="path3807"
       inkscape:connector-curvature="0" />
    <path
       style="fill:none;stroke:#000000;stroke-width:1px;stroke-linecap:butt;stroke-linejoin:miter;stroke-opacity:1"
       d="m 272.4641,379.9414 50,0 z"
       id="path3807-1"
       inkscape:connector-curvature="0" />
    <path
       style="fill:none;stroke:#000000;stroke-width:0.98233455px;stroke-linecap:butt;stroke-linejoin:miter;stroke-opacity:1"
       d="m 273.69671,382.79855 48.24906,0 z"
       id="path3807-7"
       inkscape:connector-curvature="0" />
    <path
       style="fill:none;stroke:#000000;stroke-width:0.91978264px;stroke-linecap:butt;stroke-linejoin:miter;stroke-opacity:1"
       d="m 276.49267,385.47712 42.30001,0 z"
       id="path3807-4"
       inkscape:connector-curvature="0" />
    <path
       style="fill:#ffffff;fill-opacity:1;fill-rule:nonzero;stroke:#3981c3;stroke-width:0.24589285;stroke-linecap:butt;stroke-linejoin:miter;stroke-miterlimit:12.5;stroke-opacity:0;stroke-dasharray:none;stroke-dashoffset:0"
       d="m 263.95416,400.5854 0,-25.69412 0.49107,0.45227 c 1.02061,0.93999 25.13662,22.89394 25.19325,22.93462 0.0326,0.0234 -5.66384,6.25699 -12.6588,13.85234 -6.99497,7.59535 -12.78729,13.88607 -12.87183,13.97937 -0.0859,0.0949 -0.15369,-11.15474 -0.15369,-25.52448 z"
       id="path3847"
       inkscape:connector-curvature="0" />
    <path
       style="fill:#ffffff;fill-opacity:1;fill-rule:nonzero;stroke:#3981c3;stroke-width:0.24589285;stroke-linecap:butt;stroke-linejoin:miter;stroke-miterlimit:12.5;stroke-opacity:0;stroke-dasharray:none;stroke-dashoffset:0"
       d="m 273.65009,417.50274 c 5.13922,-5.57366 11.00911,-11.94197 13.0442,-14.15179 2.03508,-2.20982 3.75778,-4.03791 3.82822,-4.06243 0.0704,-0.0245 1.80638,1.48524 3.85765,3.35502 2.05127,1.86978 3.78872,3.37645 3.861,3.34815 0.0723,-0.0283 1.76724,-1.59823 3.76658,-3.48874 l 3.63515,-3.43729 0.38136,0.40157 c 0.20975,0.22087 5.74696,6.42836 12.30491,13.79444 6.55795,7.36607 12.12855,13.61384 12.37911,13.88392 l 0.45556,0.49108 -33.4289,0 -33.42889,0 9.34405,-10.13393 0,0 z"
       id="path3849"
       inkscape:connector-curvature="0" />
    <path
       style="fill:#ffffff;fill-opacity:1;fill-rule:nonzero;stroke:#3981c3;stroke-width:0.24589285;stroke-linecap:butt;stroke-linejoin:miter;stroke-miterlimit:12.5;stroke-opacity:0;stroke-dasharray:none;stroke-dashoffset:0"
       d="m 319.24358,412.47205 c -6.86313,-7.68971 -12.48813,-14.08215 -12.5,-14.20542 -0.0119,-0.12326 5.60343,-5.55663 12.47843,-12.07416 l 12.5,-11.85004 0.0458,13.08968 c 0.0252,7.19933 0.0252,18.92429 0,26.05547 l -0.0458,12.96578 -12.47843,-13.98131 z"
       id="path3851"
       inkscape:connector-curvature="0" />
    <path
       style="fill:#ffffff;fill-opacity:1;fill-rule:nonzero;stroke:#3981c3;stroke-width:0.24589285;stroke-linecap:butt;stroke-linejoin:miter;stroke-miterlimit:12.5;stroke-opacity:0;stroke-dasharray:none;stroke-dashoffset:0"
       d="m 288.07371,395.26941 -10.02355,-9.1506 9.81327,-0.0462 c 5.3973,-0.0254 14.28514,-0.0254 19.75075,0 l 9.93748,0.0462 -9.5079,9.01786 c -5.22934,4.95982 -9.60658,9.07759 -9.7272,9.15059 -0.14173,0.0858 -3.76496,-3.10412 -10.24285,-9.01785 l 0,0 z"
       id="path3853"
       inkscape:connector-curvature="0" />
    <path
       style="fill:#ffffff;fill-opacity:1;fill-rule:nonzero;stroke:#3981c3;stroke-width:0.24589285;stroke-linecap:butt;stroke-linejoin:miter;stroke-miterlimit:12.5;stroke-opacity:0;stroke-dasharray:none;stroke-dashoffset:0"
       d="m 287.21308,385.00276 c 5.77009,-0.0261 15.21206,-0.0261 20.98215,0 5.77009,0.0261 1.0491,0.0475 -10.49107,0.0475 -11.54018,0 -16.26116,-0.0214 -10.49108,-0.0475 z"
       id="path3855"
       inkscape:connector-curvature="0" />
    <path
       style="fill:#ffffff;fill-opacity:1;fill-rule:nonzero;stroke:#3981c3;stroke-width:0.24589285;stroke-linecap:butt;stroke-linejoin:miter;stroke-miterlimit:12.5;stroke-opacity:0;stroke-dasharray:none;stroke-dashoffset:0"
       d="m 275.91844,384.15452 -0.78864,-0.80357 22.66364,0 22.66365,0 -0.78865,0.80357 -0.78864,0.80357 -21.08636,0 -21.08635,0 -0.78865,-0.80357 z"
       id="path3857"
       inkscape:connector-curvature="0" />
    <path
       style="fill:#ffffff;fill-opacity:1;fill-rule:nonzero;stroke:#3981c3;stroke-width:0.24589285;stroke-linecap:butt;stroke-linejoin:miter;stroke-miterlimit:12.5;stroke-opacity:0;stroke-dasharray:none;stroke-dashoffset:0"
       d="m 269.40055,378.21702 -4.44657,-4.0625 2.8483,-0.0415 c 4.7487,-0.0691 62.6637,-0.38122 62.70702,-0.3379 0.0222,0.0222 -1.9734,1.94475 -4.43464,4.27236 l -4.47498,4.23201 -23.87628,0 -23.87629,0 -4.44656,-4.0625 z m 53.12503,1.74107 0,-0.53571 -25.08928,0 -25.08929,0 0,0.53571 0,0.53572 25.08929,0 25.08928,0 0,-0.53572 z m 0,-3.21428 0,-0.53572 -25.08928,0 -25.08929,0 0,0.53572 0,0.53571 25.08929,0 25.08928,0 0,-0.53571 z"
       id="path3859"
       inkscape:connector-curvature="0" />
    <path
       style="fill:#ffdd55;fill-opacity:1;fill-rule:nonzero;stroke:#3981c3;stroke-width:0.24589285;stroke-linecap:butt;stroke-linejoin:miter;stroke-miterlimit:12.5;stroke-opacity:0;stroke-dasharray:none;stroke-dashoffset:0"
       d="m 264.7194,372.70641 c 12.96964,-11.84618 31.80234,-28.82698 31.92535,-28.78597 0.0922,0.0307 7.81583,6.48436 17.16364,14.3414 l 16.99602,14.28554 -20.25549,0.12104 c -40.69589,0.24318 -46.05904,0.24763 -45.82952,0.038 z"
       id="path3861"
       inkscape:connector-curvature="0" />
    <path
       style="fill:#ffdd55;fill-opacity:1;fill-rule:nonzero;stroke:#3981c3;stroke-width:0.24589285;stroke-linecap:butt;stroke-linejoin:miter;stroke-miterlimit:12.5;stroke-opacity:0;stroke-dasharray:none;stroke-dashoffset:0"
       d="m 296.60949,402.77743 c -1.67778,-1.44563 -4.67151,-4.14646 -12.71231,-11.46855 l -5.5034,-5.0115 9.64149,-0.0462 c 5.30281,-0.0254 14.03572,-0.0254 19.40646,0 l 9.76499,0.0462 -4.61735,4.38207 c -9.88216,9.37861 -14.17038,13.38579 -14.3246,13.38579 -0.0884,0 -0.83323,-0.57952 -1.65528,-1.28781 z"
       id="path3863"
       inkscape:connector-curvature="0" />
    <path
       style="fill:#ffdd55;fill-opacity:1;fill-rule:nonzero;stroke:#3981c3;stroke-width:0.24589285;stroke-linecap:butt;stroke-linejoin:miter;stroke-miterlimit:12.5;stroke-opacity:0;stroke-dasharray:none;stroke-dashoffset:0"
       d="m 276.09701,384.15452 -0.78864,-0.80357 22.48507,0 22.48508,0 -0.78865,0.80357 -0.78865,0.80357 -20.90778,0 -20.90778,0 -0.78865,-0.80357 z"
       id="path3865"
       inkscape:connector-curvature="0" />
    <path
       style="fill:#ffdd55;fill-opacity:1;fill-rule:nonzero;stroke:#3981c3;stroke-width:0.24589285;stroke-linecap:butt;stroke-linejoin:miter;stroke-miterlimit:12.5;stroke-opacity:0;stroke-dasharray:none;stroke-dashoffset:0"
       d="m 269.65131,378.30631 -4.34932,-3.97322 7.22787,-0.11017 c 3.97533,-0.0606 18.59246,-0.16656 32.48253,-0.23547 l 25.25465,-0.1253 -2.66537,2.55613 c -1.46595,1.40588 -3.44102,3.29979 -4.38903,4.20869 l -1.72366,1.65255 -23.74417,0 -23.74418,0 -4.34932,-3.97321 z m 52.87427,1.65178 0,-0.53571 -25.08928,0 -25.08929,0 0,0.53571 0,0.53572 25.08929,0 25.08928,0 0,-0.53572 z m 0,-3.21428 0,-0.53572 -25.08928,0 -25.08929,0 0,0.53572 0,0.53571 25.08929,0 25.08928,0 0,-0.53571 z"
       id="path3867"
       inkscape:connector-curvature="0" />
  </g>
</svg>
