<?xml version="1.0" encoding="UTF-8" standalone="no"?>
<!-- Created with Inkscape (http://www.inkscape.org/) -->

<svg
   xmlns:dc="http://purl.org/dc/elements/1.1/"
   xmlns:cc="http://creativecommons.org/ns#"
   xmlns:rdf="http://www.w3.org/1999/02/22-rdf-syntax-ns#"
   xmlns:svg="http://www.w3.org/2000/svg"
   xmlns="http://www.w3.org/2000/svg"
   xmlns:sodipodi="http://sodipodi.sourceforge.net/DTD/sodipodi-0.dtd"
   xmlns:inkscape="http://www.inkscape.org/namespaces/inkscape"
   width="96"
   height="96"
   id="svg2"
   version="1.1"
   inkscape:version="0.48.4 r9939"
   sodipodi:docname="Chrome.svg"
   inkscape:export-filename="C:\Users\user\Desktop\Nuova cartella (2)\Icone\Chrome.png"
   inkscape:export-xdpi="90"
   inkscape:export-ydpi="90">
  <defs
     id="defs4">
    <linearGradient
       id="linearGradient3816">
      <stop
         style="stop-color:#2ca02c;stop-opacity:1;"
         offset="0"
         id="stop3818" />
      <stop
         style="stop-color:#2ca02c;stop-opacity:0;"
         offset="1"
         id="stop3820" />
    </linearGradient>
    <linearGradient
       id="linearGradient3808">
      <stop
         style="stop-color:#ffb100;stop-opacity:1;"
         offset="0"
         id="stop3810" />
      <stop
         style="stop-color:#ffb100;stop-opacity:0;"
         offset="1"
         id="stop3812" />
    </linearGradient>
  </defs>
  <sodipodi:namedview
     id="base"
     pagecolor="#ffffff"
     bordercolor="#666666"
     borderopacity="1.0"
     inkscape:pageopacity="0.0"
     inkscape:pageshadow="2"
     inkscape:zoom="2"
     inkscape:cx="64.902258"
     inkscape:cy="74.991047"
     inkscape:document-units="px"
     inkscape:current-layer="layer1"
     showgrid="false"
     showguides="true"
     inkscape:guide-bbox="true"
     inkscape:snap-grids="true"
     inkscape:snap-to-guides="true"
     inkscape:window-width="1280"
     inkscape:window-height="974"
     inkscape:window-x="-8"
     inkscape:window-y="-8"
     inkscape:window-maximized="1">
    <sodipodi:guide
       orientation="1,0"
       position="8,58.991404"
       id="guide2985" />
    <sodipodi:guide
       orientation="0,1"
       position="-15.169218,8"
       id="guide2987" />
    <sodipodi:guide
       orientation="0,1"
       position="27.930624,88"
       id="guide2989" />
    <sodipodi:guide
       orientation="1,0"
       position="88,63.084685"
       id="guide2991" />
    <sodipodi:guide
       orientation="1,0"
       position="-45.507654,67.659528"
       id="guide3007" />
    <sodipodi:guide
       orientation="-0.98480775,0.17364818"
       position="44.503533,8"
       id="guide3788" />
    <sodipodi:guide
       orientation="0.42261826,0.90630779"
       position="8,65.25"
       id="guide3796" />
    <sodipodi:guide
       orientation="-0.37460659,0.92718385"
       position="114.19775,65.937707"
       id="guide3802" />
  </sodipodi:namedview>
  <metadata
     id="metadata7">
    <rdf:RDF>
      <cc:Work
         rdf:about="">
        <dc:format>image/svg+xml</dc:format>
        <dc:type
           rdf:resource="http://purl.org/dc/dcmitype/StillImage" />
        <dc:title />
      </cc:Work>
    </rdf:RDF>
  </metadata>
  <g
     inkscape:label="Livello 1"
     inkscape:groupmode="layer"
     id="layer1"
     transform="translate(0,-956.36218)">
    <path
       style="fill:#fcd209;fill-opacity:1;stroke:none"
       d="m 47.78125,30.5 0.1875,0.34375 c 9.370385,0.05072 16.96875,7.648939 16.96875,17.03125 0,3.908861 -1.349715,7.499501 -3.5625,10.375 L 44.550878,87.999999 88,88 88,30.5 z"
       id="path3021"
       transform="translate(0,956.36218)"
       inkscape:connector-curvature="0"
       sodipodi:nodetypes="ccsccccc" />
    <path
       style="fill:#4db849;fill-opacity:1;stroke:none"
       d="M 8,28.706683 8,88 44.550878,87.999999 61.375,58.25 c -3.116282,4.049587 -7.995121,6.6875 -13.5,6.6875 C 40.626732,64.9375 34.464992,60.378575 32,54 l -0.34375,-0.03125 z"
       id="path3023"
       transform="translate(0,956.36218)"
       inkscape:connector-curvature="0"
       sodipodi:nodetypes="ccccsccc" />
    <path
       style="fill:#e0272a;fill-opacity:1;stroke:none"
       d="m 8,8 0,22.507503 23.65625,23.461247 0.28125,-0.125 c -0.698544,-1.86228 -1.09375,-3.862504 -1.09375,-5.96875 0,-9.41374 7.61751,-17.03125 17.03125,-17.03125 6.86737,0 12.800446,4.054505 15.5,9.90625 L 88,40.5 88,8 z"
       id="path3025"
       transform="translate(0,956.36218)"
       inkscape:connector-curvature="0"
       sodipodi:nodetypes="ccccsscccc" />
    <path
       transform="matrix(1.7371964,0,0,1.7371964,-35.045256,917.04954)"
       d="m 57.546718,50.191368 c 0,5.418927 -4.392909,9.811835 -9.811836,9.811835 -5.418927,0 -9.811835,-4.392908 -9.811835,-9.811835 0,-5.418927 4.392908,-9.811835 9.811835,-9.811835 5.418927,0 9.811836,4.392908 9.811836,9.811835 z"
       sodipodi:ry="9.8118353"
       sodipodi:rx="9.8118353"
       sodipodi:cy="50.191368"
       sodipodi:cx="47.734882"
       id="path3011"
       style="fill:#ffffff;stroke:none;stroke-width:0.30000000999999998;stroke-linecap:round;stroke-linejoin:round;stroke-miterlimit:4;stroke-opacity:1;stroke-dasharray:none;stroke-dashoffset:0"
       sodipodi:type="arc" />
    <path
       sodipodi:type="arc"
       style="fill:#3981c3;stroke:none;stroke-width:0.30000000999999998;stroke-linecap:round;stroke-linejoin:round;stroke-miterlimit:4;stroke-opacity:1;stroke-dasharray:none;stroke-dashoffset:0;fill-opacity:1"
       id="path3009"
       sodipodi:cx="47.734882"
       sodipodi:cy="50.191368"
       sodipodi:rx="9.8118353"
       sodipodi:ry="9.8118353"
       d="m 57.546718,50.191368 c 0,5.418927 -4.392909,9.811835 -9.811836,9.811835 -5.418927,0 -9.811835,-4.392908 -9.811835,-9.811835 0,-5.418927 4.392908,-9.811835 9.811835,-9.811835 5.418927,0 9.811836,4.392908 9.811836,9.811835 z"
       transform="matrix(1.5015352,0,0,1.5015352,-23.795996,928.8777)" />
    <path
       style="fill:#00a500;stroke:none;fill-opacity:1;fill-rule:nonzero"
       d="m 44.503533,1044.3622 16.521039,-29.2115 c 0,0 -3.95585,5.8726 -12.438539,6.0585 -8.482687,0.1858 -0.508154,0.026 -0.508154,0.026 z"
       id="path3790"
       inkscape:connector-curvature="0"
       sodipodi:nodetypes="ccscc" />
    <path
       style="fill:#d40000;stroke:none;stroke-width:1px;stroke-linecap:butt;stroke-linejoin:miter;stroke-opacity:1"
       d="m 8,30.75 23.94502,11.165746 c 0,0 -2.49291,6.1671 -0.125215,12.188177 C 34.1875,60.125 31.8125,53.9375 31.8125,53.9375 z"
       id="path3798"
       inkscape:connector-curvature="0"
       transform="translate(0,956.36218)" />
    <path
       style="fill:#ffb100;stroke:none;stroke-width:1px;stroke-linecap:butt;stroke-linejoin:miter;stroke-opacity:1;fill-opacity:1"
       d="M 88,40.646871 63.3125,40.6875 c 0,0 2.448079,4.838684 1.50529,9.325592 -0.94279,4.486908 0.05373,-0.02171 0.05373,-0.02171 z"
       id="path3806"
       inkscape:connector-curvature="0"
       transform="translate(0,956.36218)" />
  </g>
</svg>
