<?xml version="1.0" encoding="UTF-8" standalone="no"?>
<!-- Created with Inkscape (http://www.inkscape.org/) -->

<svg
   xmlns:dc="http://purl.org/dc/elements/1.1/"
   xmlns:cc="http://creativecommons.org/ns#"
   xmlns:rdf="http://www.w3.org/1999/02/22-rdf-syntax-ns#"
   xmlns:svg="http://www.w3.org/2000/svg"
   xmlns="http://www.w3.org/2000/svg"
   xmlns:sodipodi="http://sodipodi.sourceforge.net/DTD/sodipodi-0.dtd"
   xmlns:inkscape="http://www.inkscape.org/namespaces/inkscape"
   width="96"
   height="96"
   id="svg4621"
   version="1.1"
   inkscape:version="0.48.4 r9939"
   sodipodi:docname="Nuovo documento 5">
  <defs
     id="defs4623">
    <clipPath
       clipPathUnits="userSpaceOnUse"
       id="clipPath904">
      <path
         inkscape:connector-curvature="0"
         d="M 0,96 96,96 96,0 0,0 0,96 z"
         id="path906" />
    </clipPath>
    <clipPath
       clipPathUnits="userSpaceOnUse"
       id="clipPath904-1">
      <path
         inkscape:connector-curvature="0"
         d="M 0,96 96,96 96,0 0,0 0,96 z"
         id="path906-3" />
    </clipPath>
  </defs>
  <sodipodi:namedview
     id="base"
     pagecolor="#ffffff"
     bordercolor="#666666"
     borderopacity="1.0"
     inkscape:pageopacity="0.0"
     inkscape:pageshadow="2"
     inkscape:zoom="2.8"
     inkscape:cx="83.118687"
     inkscape:cy="50.694006"
     inkscape:document-units="px"
     inkscape:current-layer="g900"
     showgrid="false"
     inkscape:window-width="1366"
     inkscape:window-height="706"
     inkscape:window-x="-8"
     inkscape:window-y="-8"
     inkscape:window-maximized="1"
     showguides="true"
     inkscape:guide-bbox="true">
    <sodipodi:guide
       orientation="1,0"
       position="8,65.714286"
       id="guide4650" />
    <sodipodi:guide
       orientation="1,0"
       position="88,58.928572"
       id="guide4652" />
    <sodipodi:guide
       orientation="0,1"
       position="31.428571,9"
       id="guide4654" />
    <sodipodi:guide
       orientation="0,1"
       position="49.642857,88"
       id="guide4656" />
  </sodipodi:namedview>
  <metadata
     id="metadata4626">
    <rdf:RDF>
      <cc:Work
         rdf:about="">
        <dc:format>image/svg+xml</dc:format>
        <dc:type
           rdf:resource="http://purl.org/dc/dcmitype/StillImage" />
        <dc:title></dc:title>
      </cc:Work>
    </rdf:RDF>
  </metadata>
  <g
     inkscape:label="Livello 1"
     inkscape:groupmode="layer"
     id="layer1"
     transform="translate(0,-956.36218)">
    <path
       style="fill:#2a7fff;stroke:#2a7fff;stroke-width:1px;stroke-linecap:butt;stroke-linejoin:miter;stroke-opacity:1"
       d="M 8,8 8,87 88,87 88,8 z"
       id="path4676"
       inkscape:connector-curvature="0"
       transform="translate(0,956.36218)" />
    <g
       id="g900"
       transform="matrix(1.0573501,0,0,-1.0573501,-2.5385202,1054.9008)"
       style="fill:#4d4d4d">
      <g
         id="g902"
         clip-path="url(#clipPath904-1)"
         style="fill:#ffffff">
        <g
           id="g908"
           transform="translate(80.2305,38.8672)"
           style="fill:#ffffff">
          <path
             d="m 0,0 c -2.053,-7.486 -6.629,-13.924 -12.779,-18.332 l -4.518,15.146 -2.373,0.678 -5.262,-0.017 -3.183,1.877 0.179,3.726 4.274,8.401 -0.209,1.756 0.217,1.436 2.789,1.109 -0.176,0.789 -0.522,0.872 -0.046,0.614 6.451,4.755 0,0.91 -2.297,1.764 -0.229,0.862 4.885,6.629 1.861,0.799 1.022,-0.066 c 1.215,-1.091 2.373,-2.245 3.416,-3.5 l -0.445,-0.135 1.211,-1.242 0.211,0.088 C -2.68,25.145 -0.592,20.763 0.445,15.978 L 0.381,15.733 0.561,15.37 C 0.961,13.341 1.195,11.242 1.217,9.091 1.236,6.063 0.82,3.137 0.088,0.344 L -0.17,0.184 0,0 z m -32.939,27.12 -0.763,2.188 0.288,2.073 1.201,2.819 -0.701,4.685 -2.422,0.314 -0.344,0.627 0.174,0.851 0.888,1.275 0.435,0.236 c 0.57,0.036 1.131,0.094 1.706,0.1 4.373,0.031 8.538,-0.801 12.373,-2.294 l -2.21,-5.923 -9.424,-8.151 -1.201,1.2 z m -12.432,0.932 -0.438,-0.276 -1.391,0.006 -0.206,0.217 1.138,1.43 0.307,-0.075 0.308,-0.445 0.282,-0.857 z m 11.281,-43.279 -3.656,-2.697 -4.113,-5.267 c -2.38,0.716 -4.631,1.709 -6.752,2.908 l -0.118,4.215 -3.929,7.601 0.06,1.483 1.13,2.705 -0.026,1.818 -1.239,1.371 -9.067,3.998 -3.011,5.117 -0.827,0.304 -0.015,-0.053 c -0.002,0.112 -0.018,0.217 -0.018,0.323 -0.067,8.88 3.362,16.956 8.966,22.987 l 1.031,-0.574 5.699,1.172 0.674,0.392 0.151,-0.31 -0.405,-0.762 -0.076,-0.334 3.96,5.518 0.287,0.108 0.259,0.002 0.229,-0.096 0.205,-0.199 -2.492,-4.642 0.956,-0.9 1.348,0.924 0.3,4.163 1.704,0.537 -0.814,-1.336 2.527,1.432 0.879,-0.203 0.088,-0.42 -1.609,-0.287 3.037,-2.587 1.179,-2.024 -1.528,-1.679 0.245,-0.283 -1.112,-1.761 -0.269,0.017 -0.57,-0.305 -2.62,1.647 2.631,2.149 -0.392,0.869 -2.504,1.582 -0.805,-2.267 -5.43,-4.212 -1.778,-2.669 1.508,-1.718 2.444,-1.125 1.03,-0.924 2.136,5.466 0.825,0.794 3.664,-1.766 0.42,0.058 3.009,-7.271 -0.904,-0.342 -1.119,0.057 -0.363,0.484 0.504,0.355 0.283,0.37 0.062,0.386 -0.164,0.409 -4.59,-1.301 1.807,-1.334 1.014,-0.129 -6.982,-3.89 -3.164,-4.603 0.022,-2.421 -1.168,0.277 -0.554,1.586 -3.773,0.702 -1.513,-0.841 -1.273,-1.728 -0.25,-0.936 0.142,-1.14 0.726,-0.78 2.024,0.973 0.647,-0.076 2.466,-4.16 8.12,-0.276 3.457,-1.312 2.807,-3.676 4.791,-1.422 1.672,-1.238 -2.133,-6.983 z m -30.816,20.774 -0.673,1.506 c -0.006,0.111 -0.018,0.222 -0.018,0.334 l 0.717,-1.231 -0.026,-0.609 z m 9.275,27.035 0.981,0.68 -0.18,0.18 c 1.025,0.946 2.103,1.84 3.242,2.651 l 0.163,-0.059 1.618,0.315 -0.047,-1.809 -1.871,-2.013 -2.396,-1.105 -1.63,0.932 0.12,0.228 z m 6.526,2.714 1.25,1.377 0.485,-0.25 -0.182,-0.895 -0.65,-0.765 -0.907,0.133 0.004,0.4 z m 3.576,4.237 0.145,-0.211 -0.405,-0.493 -0.736,-0.315 -0.678,-0.041 -0.132,0.177 c 0.598,0.303 1.19,0.62 1.806,0.883 m 1.432,0.313 0.696,-0.137 2.415,-1.371 0.58,-0.088 -0.967,-0.929 -1.564,0.211 -1.221,0.97 0.061,1.344 z m 3.654,0.69 0.664,0.873 c 1.107,0.254 2.232,0.457 3.382,0.602 l -3.599,-2.355 -1.858,-0.072 1.411,0.952 z m 20.287,-11.639 -0.949,-0.74 -1.479,0.143 -0.121,0.301 0.047,1.363 1.095,-0.242 1.149,0.257 0.539,-0.216 -0.281,-0.866 z m 0.285,-8.162 -0.086,-1.047 -1.518,-0.352 -0.64,1.618 -0.012,3.153 2.256,-3.372 z m -12.356,25.474 c -20.476,0 -37.08,-16.599 -37.08,-37.077 0,-20.478 16.604,-37.075 37.08,-37.075 20.475,0 37.073,16.597 37.073,37.075 0,20.478 -16.598,37.077 -37.073,37.077"
             style="fill:#ffffff;fill-opacity:1;fill-rule:nonzero;stroke:none"
             id="path910"
             inkscape:connector-curvature="0" />
        </g>
        <g
           id="g912"
           transform="translate(75.5645,50.543)"
           style="fill:#ffffff">
          <path
             d="M 0,0 -5.006,1.36 -5.51,1.972 -5.41,0.516 -5.539,0.403 -9.459,4.495 -9.465,4.466 -10.094,4.313 -10.199,4.464 -10.01,3.675 -8.465,2.544 -8.348,1.718 -8.65,1.21 -8.873,1.046 -9.154,0.944 l -1.473,2.317 -2.215,-0.014 -4.619,-3.429 6.061,0.223 2.74,-2.485 1.305,-0.457 7.273,1.46 L 0,0 z"
             style="fill:#ffffff;fill-opacity:1;fill-rule:nonzero;stroke:none"
             id="path914"
             inkscape:connector-curvature="0" />
        </g>
      </g>
    </g>
  </g>
</svg>
