<?xml version="1.0" encoding="UTF-8" standalone="no"?>
<!-- Created with Inkscape (http://www.inkscape.org/) -->

<svg
   xmlns:dc="http://purl.org/dc/elements/1.1/"
   xmlns:cc="http://creativecommons.org/ns#"
   xmlns:rdf="http://www.w3.org/1999/02/22-rdf-syntax-ns#"
   xmlns:svg="http://www.w3.org/2000/svg"
   xmlns="http://www.w3.org/2000/svg"
   xmlns:sodipodi="http://sodipodi.sourceforge.net/DTD/sodipodi-0.dtd"
   xmlns:inkscape="http://www.inkscape.org/namespaces/inkscape"
   width="96"
   height="96"
   id="svg2"
   version="1.1"
   inkscape:version="0.48.0 r9654"
   sodipodi:docname="Chrome.svg"
   inkscape:export-filename="C:\Users\user\Desktop\Nuova cartella (2)\Icone\Chrome.png"
   inkscape:export-xdpi="90"
   inkscape:export-ydpi="90">
  <defs
     id="defs4" />
  <sodipodi:namedview
     id="base"
     pagecolor="#ffffff"
     bordercolor="#666666"
     borderopacity="1.0"
     inkscape:pageopacity="0.0"
     inkscape:pageshadow="2"
     inkscape:zoom="2"
     inkscape:cx="-32.250342"
     inkscape:cy="100.38968"
     inkscape:document-units="px"
     inkscape:current-layer="layer1"
     showgrid="false"
     showguides="true"
     inkscape:guide-bbox="true"
     inkscape:snap-grids="true"
     inkscape:snap-to-guides="true"
     inkscape:window-width="1366"
     inkscape:window-height="706"
     inkscape:window-x="-32000"
     inkscape:window-y="-32000"
     inkscape:window-maximized="1">
    <sodipodi:guide
       orientation="1,0"
       position="8,58.991404"
       id="guide2985" />
    <sodipodi:guide
       orientation="0,1"
       position="-15.169218,8"
       id="guide2987" />
    <sodipodi:guide
       orientation="0,1"
       position="27.930624,88"
       id="guide2989" />
    <sodipodi:guide
       orientation="1,0"
       position="88,63.084685"
       id="guide2991" />
    <sodipodi:guide
       orientation="1,0"
       position="-45.507654,67.659528"
       id="guide3007" />
    <sodipodi:guide
       orientation="0,1"
       position="70.428513,65.492497"
       id="guide3015" />
    <sodipodi:guide
       orientation="0.86221114,0.50654906"
       position="31.662733,42.016326"
       id="guide3017" />
    <sodipodi:guide
       orientation="0.87039904,-0.49234693"
       position="62.362341,39.488123"
       id="guide3019" />
  </sodipodi:namedview>
  <metadata
     id="metadata7">
    <rdf:RDF>
      <cc:Work
         rdf:about="">
        <dc:format>image/svg+xml</dc:format>
        <dc:type
           rdf:resource="http://purl.org/dc/dcmitype/StillImage" />
        <dc:title></dc:title>
      </cc:Work>
    </rdf:RDF>
  </metadata>
  <g
     inkscape:label="Livello 1"
     inkscape:groupmode="layer"
     id="layer1"
     transform="translate(0,-956.36218)">
    <path
       style="fill:#fcd209;stroke:none;stroke-width:1px;stroke-linecap:butt;stroke-linejoin:miter;stroke-opacity:1;fill-opacity:1"
       d="M 47.78125 30.5 L 47.96875 30.84375 C 57.339135 30.894471 64.9375 38.492689 64.9375 47.875 C 64.9375 51.783861 63.587785 55.374501 61.375 58.25 L 44.5625 88 L 88 88 L 88 30.5 L 47.78125 30.5 z "
       transform="translate(0,956.36218)"
       id="path3021" />
    <path
       style="fill:#4db849;fill-opacity:1;stroke:none"
       d="M 8 13.71875 L 8 88 L 44.5625 88 L 61.375 58.25 C 58.258718 62.299587 53.379879 64.9375 47.875 64.9375 C 40.626732 64.9375 34.464992 60.378575 32 54 L 31.65625 53.96875 L 8 13.71875 z "
       transform="translate(0,956.36218)"
       id="path3023" />
    <path
       style="fill:#e0272a;fill-opacity:1;stroke:none"
       d="M 8 8 L 8 13.71875 L 31.65625 53.96875 L 31.9375 53.84375 C 31.238956 51.98147 30.84375 49.981246 30.84375 47.875 C 30.84375 38.46126 38.46126 30.84375 47.875 30.84375 C 54.74237 30.84375 60.675446 34.898255 63.375 40.75 L 88 30.5 L 88 8 L 8 8 z "
       transform="translate(0,956.36218)"
       id="path3025" />
    <path
       transform="matrix(1.7371964,0,0,1.7371964,-35.045256,917.04954)"
       d="m 57.546718,50.191368 a 9.8118353,9.8118353 0 1 1 -19.623671,0 9.8118353,9.8118353 0 1 1 19.623671,0 z"
       sodipodi:ry="9.8118353"
       sodipodi:rx="9.8118353"
       sodipodi:cy="50.191368"
       sodipodi:cx="47.734882"
       id="path3011"
       style="fill:#ffffff;stroke:none;stroke-width:0.30000000999999998;stroke-linecap:round;stroke-linejoin:round;stroke-miterlimit:4;stroke-opacity:1;stroke-dasharray:none;stroke-dashoffset:0"
       sodipodi:type="arc" />
    <path
       sodipodi:type="arc"
       style="fill:#3981c3;stroke:none;stroke-width:0.30000000999999998;stroke-linecap:round;stroke-linejoin:round;stroke-miterlimit:4;stroke-opacity:1;stroke-dasharray:none;stroke-dashoffset:0;fill-opacity:1"
       id="path3009"
       sodipodi:cx="47.734882"
       sodipodi:cy="50.191368"
       sodipodi:rx="9.8118353"
       sodipodi:ry="9.8118353"
       d="m 57.546718,50.191368 a 9.8118353,9.8118353 0 1 1 -19.623671,0 9.8118353,9.8118353 0 1 1 19.623671,0 z"
       transform="matrix(1.5015352,0,0,1.5015352,-23.795996,928.8777)" />
  </g>
</svg>
